<?xml version="1.0" standalone="no"?><!DOCTYPE svg PUBLIC "-//W3C//DTD SVG 1.1//EN" "http://www.w3.org/Graphics/SVG/1.1/DTD/svg11.dtd"><svg class="icon" width="200px" height="200.00px" viewBox="0 0 1024 1024" version="1.1" xmlns="http://www.w3.org/2000/svg"><path d="M735.842603 414.020478c-2.973728-55.660694-49.877991-102.652961-105.70446-105.21839-0.163729 35.102473-0.077771 70.282716-0.077771 105.461937C665.318386 414.264025 700.576401 414.421614 735.842603 414.020478zM862.506421 261.010619c1.853208-18.472723-12.611226-32.850176-31.084972-31.085996-85.781712-1.287319-171.727153 0.084934-257.58766-0.401136 0-24.095791 0-48.192605 0-72.290443l-45.541219 0c-124.097366 21.12411-248.032026 42.970674-371.97385 64.415079 0 187.31313-0.079818 374.704031 0 562.094932 122.490775 21.522176 245.146303 41.925878 367.55112 64.257489l49.963948 0c0-26.748201 0-53.574173 0-80.32135 80.399121 0 160.723541-0.156566 241.044892 0.2415 13.734816-0.64059 28.988218 0.478907 40.71633-8.03193 9.31925-14.377452 6.91141-32.371268 7.710612-48.593741C862.185103 561.171909 863.871511 411.04675 862.506421 261.010619zM391.90325 529.286712c-18.229177 9.318226-39.117926 8.032954-58.95574 7.390317-0.077771 31.407314-0.161682 62.814628-0.077771 94.212732-15.905248-1.364067-31.892361-2.729158-47.793516-4.015454-0.721431-85.781712-0.88516-171.648358 0.079818-257.43007 43.61024 2.086521 96.465029-17.272385 132.608204 15.420201C452.386786 426.877297 443.227172 504.139985 391.90325 529.286712zM838.894653 743.582379c-88.352257 0-176.706561 0-265.059841 0 0-21.444405 0-42.812061 0-64.256466 64.258513 0 128.517025 0 192.773492 0 0-10.68434 0-21.445428 0-32.128745-64.256466 0-128.514979 0-192.773492 0 0-13.411451 0-26.748201 0-40.160675 64.258513 0 128.517025 0 192.773492 0 0-10.682293 0-21.445428 0-32.128745-64.256466 0-128.514979 0-192.69572 0-0.077771-15.742543-0.077771-31.484062-0.163729-47.227628 31.816636 9.875928 68.037583 9.640568 96.472192-9.484002 30.763654-18.228153 46.828538-53.008284 49.478901-87.710644-35.266202-0.233314-70.52217-0.155543-105.70446-0.155543-0.083911-34.93772 0.400113-69.88158-0.721431-104.739483-13.175067 2.572592-26.348088 5.303796-39.439244 8.111748 0-26.662243 0-53.410444 0-80.078827 88.354304 0 176.708608 0 265.059841 0C838.894653 416.915411 838.894653 580.288293 838.894653 743.582379zM332.869738 412.898935c-0.2415 26.983561-0.402159 53.896514 1.287319 80.801281 15.978926-1.921769 36.700877-0.320295 45.862537-16.864086 7.624654-16.228613 8.110725-36.95261-1.050935-52.686966C368.291482 409.284617 348.691075 412.178527 332.869738 412.898935z" /></svg>