<?xml version="1.0" standalone="no"?><!DOCTYPE svg PUBLIC "-//W3C//DTD SVG 1.1//EN" "http://www.w3.org/Graphics/SVG/1.1/DTD/svg11.dtd"><svg class="icon" width="200px" height="200.00px" viewBox="0 0 1024 1024" version="1.1" xmlns="http://www.w3.org/2000/svg"><path d="M866.125855 252.67886c1.685385-18.314111-12.691043-32.527834-30.999015-30.677697-85.866646-1.37123-171.72613 0-257.672594-0.48607 0-21.444405 0-42.812061 0-64.258513l-48.03604 0c-123.133412 21.933545-246.345618 42.890856-369.479029 64.415079 0 187.31313-0.078795 374.705054 0 562.095955 122.489752 21.444405 245.059322 41.925878 367.314737 64.257489l50.201355 0c0-21.446451 0-42.813085 0-64.257489 80.400145 0 160.721495-0.156566 241.12164 0.2415 13.657045-0.642636 28.833699 0.400113 40.561811-7.953136 9.397021-14.377452 6.988158-32.371268 7.795547-48.592718C865.803513 569.228399 867.490945 410.915767 866.125855 252.67886zM427.893952 611.797937c-13.412474 6.988158-33.492812-0.322341-49.40113 0.799202-10.683317-53.165874-23.130813-106.018615-32.6844-159.435199-9.405207 51.887764-21.61018 103.295598-32.372292 154.862044-15.421224-0.807389-30.928407-1.76418-46.428426-2.816139-13.33368-70.680782-28.997428-140.876518-41.446971-211.723076 13.734816-0.642636 27.555589-1.208525 41.290405-1.685385 8.267291 51.166333 17.664312 102.08912 24.89704 153.334247 11.326976-52.531424 22.88829-105.061824 34.136471-157.593248 15.263635-0.876973 30.520107-1.521656 45.784766-2.329045 10.683317 54.215786 21.601994 108.355847 33.172517 162.330132 9.075703-55.739489 19.11536-111.321388 28.834722-166.989245 16.063861-0.556679 32.127721-1.442862 48.113811-2.407839C463.638037 455.970916 447.731766 534.449291 427.893952 611.797937zM842.515111 759.670799c-88.35328 0-176.707584 0-265.060865 0 0-21.444405 0-42.812061 0-64.257489 69.638033 0 139.198296 0 208.836329 0 0-10.683317 0-21.444405 0-32.127721-69.638033 0-139.198296 0-208.836329 0 0-13.413498 0-26.748201 0-40.161698 69.638033 0 139.198296 0 208.836329 0 0-10.68127 0-21.444405 0-32.127721-69.638033 0-139.198296 0-208.836329 0 0-13.413498 0-26.748201 0-40.159652 69.638033 0 139.198296 0 208.836329 0 0-10.682293 0-21.446451 0-32.128745-69.638033 0-139.198296 0-208.836329 0 0-13.411451 0-26.747177 0-40.160675 69.638033 0 139.198296 0 208.836329 0 0-10.682293 0-21.444405 0-32.127721-69.638033 0-139.198296 0-208.836329 0 0-13.413498 0-26.748201 0-40.161698 69.638033 0 139.198296 0 208.836329 0 0-10.683317 0-21.444405 0-32.127721-69.638033 0-139.198296 0-208.836329 0 0-13.413498 0-26.748201 0-40.159652 69.638033 0 139.198296 0 208.836329 0 0-10.68434 0-21.446451 0-32.128745-69.638033 0-139.198296 0-208.836329 0 0-18.71627 0-37.509289 0-56.224536 88.35328 0 176.707584 0 265.060865 0C842.515111 416.937924 842.515111 588.344782 842.515111 759.670799z" /></svg>