<?xml version="1.0" encoding="UTF-8"?>
<svg width="242px" height="171px" viewBox="0 0 242 171" version="1.1" xmlns="http://www.w3.org/2000/svg" xmlns:xlink="http://www.w3.org/1999/xlink">
    <title>认证失败</title>
    <defs>
        <ellipse id="path-1" cx="76.1458333" cy="4.72222222" rx="76.1458333" ry="4.72222222"></ellipse>
    </defs>
    <g id="框架设计-过程版" stroke="none" stroke-width="1" fill="none" fill-rule="evenodd">
        <g id="缺省图" transform="translate(-1591.000000, -867.000000)">
            <g id="认证失败" transform="translate(1591.000000, 867.000000)">
                <path d="M37.5112493,8.85416667 C40.155021,8.85416667 42.2982214,11.0260631 42.2982214,13.7052331 L42.2982214,49.6742736 C42.2982214,52.3534436 44.4414218,54.52534 47.0851935,54.52534 C49.7289651,54.52534 51.8721655,52.3534436 51.8721655,49.6742736 L51.8721655,31.7616691 C51.8721655,29.0824991 54.0153659,26.9106027 56.6591376,26.9106027 C59.3029093,26.9106027 61.4461097,29.0824991 61.4461097,31.7616691 L61.4461097,40.2340362 C61.4461097,42.9132062 63.5893101,45.0851026 66.2330818,45.0851026 C68.8768535,45.0851026 71.0200539,42.9132062 71.0200539,40.2340362 L71.0200539,18.5562995 C71.0200539,15.8771295 73.1632543,13.7052331 75.8070259,13.7052331 C78.4507976,13.7052331 80.593998,15.8771295 80.593998,18.5562995 L80.5933889,46.5221667 L40.1923984,66.228144 C38.2688862,67.1663036 37.4349524,69.4429693 38.2651507,71.3895158 L38.3507068,71.5768048 L61.4453889,118.927167 L61.4461097,121.744411 C61.4461097,124.423581 59.3029093,126.595478 56.6591376,126.595478 C54.0153659,126.595478 51.8721655,124.423581 51.8721655,121.744411 L51.8721655,105.929721 C51.8721655,103.250551 49.7289651,101.078654 47.0851935,101.078654 C44.4414218,101.078654 42.2982214,103.250551 42.2982214,105.929721 L42.2982214,112.082704 C42.2982214,114.761874 40.155021,116.933771 37.5112493,116.933771 C34.8674776,116.933771 32.7242772,114.761874 32.7242772,112.082704 L32.7242772,111.004689 C32.7242772,108.325519 30.5810768,106.153623 27.9373051,106.153623 C25.2935335,106.153623 23.150333,108.325519 23.150333,111.004689 L23.150333,129.141989 C23.150333,131.821159 21.0071326,133.993056 18.363361,133.993056 C15.7195893,133.993056 13.5763889,131.821159 13.5763889,129.141989 L13.5763889,37.9605652 C13.5763889,35.2813952 15.7195893,33.1094988 18.363361,33.1094988 C21.0071326,33.1094988 23.150333,35.2813952 23.150333,37.9605652 L23.150333,39.5775874 C23.150333,42.2567574 25.2935335,44.4286538 27.9373051,44.4286538 C30.5810768,44.4286538 32.7242772,42.2567574 32.7242772,39.5775874 L32.7242772,13.7052331 C32.7242772,11.0260631 34.8674776,8.85416667 37.5112493,8.85416667 Z M210.405417,8.85416667 C212.977736,8.85416667 215.076175,10.9102498 215.187725,13.4891476 L215.192389,13.7052331 L215.192389,39.5775874 C215.192389,42.2567574 217.33559,44.4286538 219.979362,44.4286538 C222.55168,44.4286538 224.650119,42.3725707 224.761669,39.7936729 L224.766334,39.5775874 L224.766334,37.9605652 C224.766334,35.2813952 226.909534,33.1094988 229.553306,33.1094988 C232.125624,33.1094988 234.224063,35.1655819 234.335614,37.7444797 L234.340278,37.9605652 L234.340278,108.139326 C234.340278,110.818496 232.197077,112.990393 229.553306,112.990393 C226.980987,112.990393 224.882548,110.93431 224.770998,108.355412 L224.766334,108.139326 L224.766334,104.054728 C224.766334,101.375558 222.623133,99.2036618 219.979362,99.2036618 C217.407043,99.2036618 215.308604,101.259745 215.197054,103.838643 L215.192389,104.054728 L215.192389,105.132743 C215.192389,107.811913 213.049189,109.983809 210.405417,109.983809 C208.773576,109.983809 207.332445,109.156349 206.468304,107.892881 C206.317239,106.065352 206.030758,104.276256 205.619927,102.535184 L205.618445,98.9797593 C205.618445,96.970284 204.412778,95.2461778 202.694528,94.5098062 C201.810768,92.7582589 200.790296,91.0871375 199.647172,89.51075 L209.780407,84.5686592 C211.703919,83.6304996 212.537853,81.3538339 211.707654,79.4072874 L211.622098,79.2199985 L186.470389,27.6531667 L186.470557,27.1964842 C186.470557,24.5173142 188.613757,22.3454177 191.257529,22.3454177 C193.829847,22.3454177 195.928287,24.4015008 196.039837,26.9803987 L196.044501,27.1964842 L196.044501,31.3911018 C196.044501,34.0702718 198.187702,36.2421682 200.831473,36.2421682 C203.403792,36.2421682 205.502231,34.1860851 205.613781,31.6071873 L205.618445,31.3911018 L205.618445,13.7052331 C205.618445,11.0260631 207.761646,8.85416667 210.405417,8.85416667 Z M28.359685,53.5324885 C25.6381554,53.5324885 23.4319196,55.6504707 23.4319196,58.2631343 L23.4319196,85.117743 C23.4319196,87.7304065 25.6381554,89.8483888 28.359685,89.8483888 C31.0812147,89.8483888 33.2874504,87.7304065 33.2874504,85.117743 L33.2874504,58.2631343 C33.2874504,55.6504707 31.0812147,53.5324885 28.359685,53.5324885 Z M221.528088,58.4967464 C218.806558,58.4967464 216.600322,60.6147287 216.600322,63.2273923 L216.600322,84.7406328 C216.600322,87.3532963 218.806558,89.4712786 221.528088,89.4712786 C224.249617,89.4712786 226.455853,87.3532963 226.455853,84.7406328 L226.455853,63.2273923 C226.455853,60.6147287 224.249617,58.4967464 221.528088,58.4967464 Z M95.2365009,31.3911018 C97.8088192,31.3911018 99.9072586,33.4471849 100.018809,36.0260827 L100.023473,36.2421682 L100.023389,37.0461667 L90.4493889,41.7151667 L90.4495288,36.2421682 C90.4495288,33.6354082 92.478446,31.5088722 95.0232704,31.3958284 L95.2365009,31.3911018 Z M114.384389,22.3454177 C116.956708,22.3454177 119.055147,24.4015008 119.166697,26.9803987 L119.171361,27.1964842 L119.170389,27.7071667 L109.597389,32.3761667 L109.597417,27.1964842 C109.597417,24.5897242 111.626334,22.4631881 114.171159,22.3501443 L114.384389,22.3454177 Z M133.532277,8.85416667 C136.104596,8.85416667 138.203035,10.9102498 138.314585,13.4891476 L138.31925,13.7052331 L138.318389,18.3691667 L128.744389,23.0381667 L128.745305,13.7052331 C128.745305,11.0984731 130.774223,8.97193702 133.319047,8.85889326 L133.532277,8.85416667 Z" id="Combined-Shape" fill="#A3B1BF" fill-rule="nonzero" opacity="0.102004278"></path>
                <g id="Combined-Shape" transform="translate(60.208333, 146.388889)">
                    <mask id="mask-2" fill="white">
                        <use xlink:href="#path-1"></use>
                    </mask>
                    <use id="Mask" fill="#A3B1BF" fill-rule="nonzero" opacity="0.248516555" xlink:href="#path-1"></use>
                    <path d="M48.4557519,7.34567901 C49.5488086,7.34567901 50.4342532,7.58065901 50.4342532,7.87037037 C50.4342532,8.16008173 49.5488086,8.39506173 48.4557519,8.39506173 C47.3640702,8.39506173 46.4786255,8.16008173 46.4786255,7.87037037 C46.4786255,7.58065901 47.3640702,7.34567901 48.4557519,7.34567901 Z M107.790168,7.34567901 C108.883224,7.34567901 109.768669,7.58065901 109.768669,7.87037037 C109.768669,8.16008173 108.883224,8.39506173 107.790168,8.39506173 C106.698486,8.39506173 105.813041,8.16008173 105.813041,7.87037037 C105.813041,7.58065901 106.698486,7.34567901 107.790168,7.34567901 Z M150.313165,7.34567901 C151.406222,7.34567901 152.291667,7.58065901 152.291667,7.87037037 C152.291667,8.16008173 151.406222,8.39506173 150.313165,8.39506173 C149.221484,8.39506173 148.336039,8.16008173 148.336039,7.87037037 C148.336039,7.58065901 149.221484,7.34567901 150.313165,7.34567901 Z M56.3670073,7.34567901 C57.460064,7.34567901 58.3455087,7.58065901 58.3455087,7.87037037 C58.3455087,8.16008173 57.460064,8.39506173 56.3670073,8.39506173 C55.2753256,8.39506173 54.389881,8.16008173 54.389881,7.87037037 C54.389881,7.58065901 55.2753256,7.34567901 56.3670073,7.34567901 Z M115.701423,7.34567901 C116.79448,7.34567901 117.679924,7.58065901 117.679924,7.87037037 C117.679924,8.16008173 116.79448,8.39506173 115.701423,8.39506173 C114.609741,8.39506173 113.724297,8.16008173 113.724297,7.87037037 C113.724297,7.58065901 114.609741,7.34567901 115.701423,7.34567901 Z M158.224421,7.34567901 C159.317477,7.34567901 160.202922,7.58065901 160.202922,7.87037037 C160.202922,8.16008173 159.317477,8.39506173 158.224421,8.39506173 C157.132739,8.39506173 156.247294,8.16008173 156.247294,7.87037037 C156.247294,7.58065901 157.132739,7.34567901 158.224421,7.34567901 Z M39.5555896,7.34567901 C40.6486463,7.34567901 41.5340909,7.58065901 41.5340909,7.87037037 C41.5340909,8.16008173 40.6486463,8.39506173 39.5555896,8.39506173 C38.4639078,8.39506173 37.5784632,8.16008173 37.5784632,7.87037037 C37.5784632,7.58065901 38.4639078,7.34567901 39.5555896,7.34567901 Z M98.8900052,7.34567901 C99.9830618,7.34567901 100.868506,7.58065901 100.868506,7.87037037 C100.868506,8.16008173 99.9830618,8.39506173 98.8900052,8.39506173 C97.7983234,8.39506173 96.9128788,8.16008173 96.9128788,7.87037037 C96.9128788,7.58065901 97.7983234,7.34567901 98.8900052,7.34567901 Z M141.413003,7.34567901 C142.50606,7.34567901 143.391504,7.58065901 143.391504,7.87037037 C143.391504,8.16008173 142.50606,8.39506173 141.413003,8.39506173 C140.321321,8.39506173 139.435877,8.16008173 139.435877,7.87037037 C139.435877,7.58065901 140.321321,7.34567901 141.413003,7.34567901 Z M31.6443342,7.34567901 C32.7373909,7.34567901 33.6228355,7.58065901 33.6228355,7.87037037 C33.6228355,8.16008173 32.7373909,8.39506173 31.6443342,8.39506173 C30.5526524,8.39506173 29.6672078,8.16008173 29.6672078,7.87037037 C29.6672078,7.58065901 30.5526524,7.34567901 31.6443342,7.34567901 Z M90.9787498,7.34567901 C92.0718064,7.34567901 92.9572511,7.58065901 92.9572511,7.87037037 C92.9572511,8.16008173 92.0718064,8.39506173 90.9787498,8.39506173 C89.887068,8.39506173 89.0016234,8.16008173 89.0016234,7.87037037 C89.0016234,7.58065901 89.887068,7.34567901 90.9787498,7.34567901 Z M133.501748,7.34567901 C134.594804,7.34567901 135.480249,7.58065901 135.480249,7.87037037 C135.480249,8.16008173 134.594804,8.39506173 133.501748,8.39506173 C132.410066,8.39506173 131.524621,8.16008173 131.524621,7.87037037 C131.524621,7.58065901 132.410066,7.34567901 133.501748,7.34567901 Z M22.7441719,7.34567901 C23.8372285,7.34567901 24.7226732,7.58065901 24.7226732,7.87037037 C24.7226732,8.16008173 23.8372285,8.39506173 22.7441719,8.39506173 C21.6524901,8.39506173 20.7670455,8.16008173 20.7670455,7.87037037 C20.7670455,7.58065901 21.6524901,7.34567901 22.7441719,7.34567901 Z M82.0785874,7.34567901 C83.1716441,7.34567901 84.0570887,7.58065901 84.0570887,7.87037037 C84.0570887,8.16008173 83.1716441,8.39506173 82.0785874,8.39506173 C80.9869057,8.39506173 80.101461,8.16008173 80.101461,7.87037037 C80.101461,7.58065901 80.9869057,7.34567901 82.0785874,7.34567901 Z M124.601585,7.34567901 C125.694642,7.34567901 126.580087,7.58065901 126.580087,7.87037037 C126.580087,8.16008173 125.694642,8.39506173 124.601585,8.39506173 C123.509904,8.39506173 122.624459,8.16008173 122.624459,7.87037037 C122.624459,7.58065901 123.509904,7.34567901 124.601585,7.34567901 Z M14.8329164,7.34567901 C15.9259731,7.34567901 16.8114177,7.58065901 16.8114177,7.87037037 C16.8114177,8.16008173 15.9259731,8.39506173 14.8329164,8.39506173 C13.7412347,8.39506173 12.85579,8.16008173 12.85579,7.87037037 C12.85579,7.58065901 13.7412347,7.34567901 14.8329164,7.34567901 Z M74.167332,7.34567901 C75.2603887,7.34567901 76.1458333,7.58065901 76.1458333,7.87037037 C76.1458333,8.16008173 75.2603887,8.39506173 74.167332,8.39506173 C73.0756503,8.39506173 72.1902056,8.16008173 72.1902056,7.87037037 C72.1902056,7.58065901 73.0756503,7.34567901 74.167332,7.34567901 Z M5.9327541,7.34567901 C7.02581077,7.34567901 7.91125541,7.58065901 7.91125541,7.87037037 C7.91125541,8.16008173 7.02581077,8.39506173 5.9327541,8.39506173 C4.84107235,8.39506173 3.95562771,8.16008173 3.95562771,7.87037037 C3.95562771,7.58065901 4.84107235,7.34567901 5.9327541,7.34567901 Z M65.2671697,7.34567901 C66.3602264,7.34567901 67.245671,7.58065901 67.245671,7.87037037 C67.245671,8.16008173 66.3602264,8.39506173 65.2671697,8.39506173 C64.1754879,8.39506173 63.2900433,8.16008173 63.2900433,7.87037037 C63.2900433,7.58065901 64.1754879,7.34567901 65.2671697,7.34567901 Z M-1.97850131,7.34567901 C-0.885444645,7.34567901 -1.42108547e-14,7.58065901 -1.42108547e-14,7.87037037 C-1.42108547e-14,8.16008173 -0.885444645,8.39506173 -1.97850131,8.39506173 C-3.07018306,8.39506173 -3.95562771,8.16008173 -3.95562771,7.87037037 C-3.95562771,7.58065901 -3.07018306,7.34567901 -1.97850131,7.34567901 Z M157.235514,4.19753086 C158.328571,4.19753086 159.214015,4.43251086 159.214015,4.72222222 C159.214015,5.01193358 158.328571,5.24691358 157.235514,5.24691358 C156.143832,5.24691358 155.258387,5.01193358 155.258387,4.72222222 C155.258387,4.43251086 156.143832,4.19753086 157.235514,4.19753086 Z M140.424096,4.19753086 C141.517153,4.19753086 142.402597,4.43251086 142.402597,4.72222222 C142.402597,5.01193358 141.517153,5.24691358 140.424096,5.24691358 C139.332414,5.24691358 138.44697,5.01193358 138.44697,4.72222222 C138.44697,4.43251086 139.332414,4.19753086 140.424096,4.19753086 Z M114.712516,4.19753086 C115.805573,4.19753086 116.691017,4.43251086 116.691017,4.72222222 C116.691017,5.01193358 115.805573,5.24691358 114.712516,5.24691358 C113.620834,5.24691358 112.73539,5.01193358 112.73539,4.72222222 C112.73539,4.43251086 113.620834,4.19753086 114.712516,4.19753086 Z M149.324258,4.19753086 C150.417315,4.19753086 151.30276,4.43251086 151.30276,4.72222222 C151.30276,5.01193358 150.417315,5.24691358 149.324258,5.24691358 C148.232577,5.24691358 147.347132,5.01193358 147.347132,4.72222222 C147.347132,4.43251086 148.232577,4.19753086 149.324258,4.19753086 Z M131.523934,4.19753086 C132.61699,4.19753086 133.502435,4.43251086 133.502435,4.72222222 C133.502435,5.01193358 132.61699,5.24691358 131.523934,5.24691358 C130.432252,5.24691358 129.546807,5.01193358 129.546807,4.72222222 C129.546807,4.43251086 130.432252,4.19753086 131.523934,4.19753086 Z M166.135676,4.19753086 C167.228733,4.19753086 168.114177,4.43251086 168.114177,4.72222222 C168.114177,5.01193358 167.228733,5.24691358 166.135676,5.24691358 C165.043994,5.24691358 164.15855,5.01193358 164.15855,4.72222222 C164.15855,4.43251086 165.043994,4.19753086 166.135676,4.19753086 Z M44.5001242,4.19753086 C45.5931809,4.19753086 46.4786255,4.43251086 46.4786255,4.72222222 C46.4786255,5.01193358 45.5931809,5.24691358 44.5001242,5.24691358 C43.4084425,5.24691358 42.5229978,5.01193358 42.5229978,4.72222222 C42.5229978,4.43251086 43.4084425,4.19753086 44.5001242,4.19753086 Z M27.6887065,4.19753086 C28.7817631,4.19753086 29.6672078,4.43251086 29.6672078,4.72222222 C29.6672078,5.01193358 28.7817631,5.24691358 27.6887065,5.24691358 C26.5970247,5.24691358 25.7115801,5.01193358 25.7115801,4.72222222 C25.7115801,4.43251086 26.5970247,4.19753086 27.6887065,4.19753086 Z M105.812354,4.19753086 C106.90541,4.19753086 107.790855,4.43251086 107.790855,4.72222222 C107.790855,5.01193358 106.90541,5.24691358 105.812354,5.24691358 C104.720672,5.24691358 103.835227,5.01193358 103.835227,4.72222222 C103.835227,4.43251086 104.720672,4.19753086 105.812354,4.19753086 Z M122.623771,4.19753086 C123.716828,4.19753086 124.602273,4.43251086 124.602273,4.72222222 C124.602273,5.01193358 123.716828,5.24691358 122.623771,5.24691358 C121.53209,5.24691358 120.646645,5.01193358 120.646645,4.72222222 C120.646645,4.43251086 121.53209,4.19753086 122.623771,4.19753086 Z M62.3004489,4.19753086 C63.3935056,4.19753086 64.2789502,4.43251086 64.2789502,4.72222222 C64.2789502,5.01193358 63.3935056,5.24691358 62.3004489,5.24691358 C61.2087672,5.24691358 60.3233225,5.01193358 60.3233225,4.72222222 C60.3233225,4.43251086 61.2087672,4.19753086 62.3004489,4.19753086 Z M19.7774511,4.19753086 C20.8705077,4.19753086 21.7559524,4.43251086 21.7559524,4.72222222 C21.7559524,5.01193358 20.8705077,5.24691358 19.7774511,5.24691358 C18.6857693,5.24691358 17.8003247,5.01193358 17.8003247,4.72222222 C17.8003247,4.43251086 18.6857693,4.19753086 19.7774511,4.19753086 Z M97.9010983,4.19753086 C98.9941549,4.19753086 99.8795996,4.43251086 99.8795996,4.72222222 C99.8795996,5.01193358 98.9941549,5.24691358 97.9010983,5.24691358 C96.8094165,5.24691358 95.9239719,5.01193358 95.9239719,4.72222222 C95.9239719,4.43251086 96.8094165,4.19753086 97.9010983,4.19753086 Z M175.035839,4.19753086 C176.128895,4.19753086 177.01434,4.43251086 177.01434,4.72222222 C177.01434,5.01193358 176.128895,5.24691358 175.035839,5.24691358 C173.944157,5.24691358 173.058712,5.01193358 173.058712,4.72222222 C173.058712,4.43251086 173.944157,4.19753086 175.035839,4.19753086 Z M53.4002866,4.19753086 C54.4933432,4.19753086 55.3787879,4.43251086 55.3787879,4.72222222 C55.3787879,5.01193358 54.4933432,5.24691358 53.4002866,5.24691358 C52.3086048,5.24691358 51.4231602,5.01193358 51.4231602,4.72222222 C51.4231602,4.43251086 52.3086048,4.19753086 53.4002866,4.19753086 Z M10.8772887,4.19753086 C11.9703454,4.19753086 12.85579,4.43251086 12.85579,4.72222222 C12.85579,5.01193358 11.9703454,5.24691358 10.8772887,5.24691358 C9.78560698,5.24691358 8.90016234,5.01193358 8.90016234,4.72222222 C8.90016234,4.43251086 9.78560698,4.19753086 10.8772887,4.19753086 Z M89.0009359,4.19753086 C90.0939926,4.19753086 90.9794372,4.43251086 90.9794372,4.72222222 C90.9794372,5.01193358 90.0939926,5.24691358 89.0009359,5.24691358 C87.9092542,5.24691358 87.0238095,5.01193358 87.0238095,4.72222222 C87.0238095,4.43251086 87.9092542,4.19753086 89.0009359,4.19753086 Z M36.5888688,4.19753086 C37.6819255,4.19753086 38.5673701,4.43251086 38.5673701,4.72222222 C38.5673701,5.01193358 37.6819255,5.24691358 36.5888688,5.24691358 C35.4971871,5.24691358 34.6117424,5.01193358 34.6117424,4.72222222 C34.6117424,4.43251086 35.4971871,4.19753086 36.5888688,4.19753086 Z M1.9771264,4.19753086 C3.07018306,4.19753086 3.95562771,4.43251086 3.95562771,4.72222222 C3.95562771,5.01193358 3.07018306,5.24691358 1.9771264,5.24691358 C0.885444645,5.24691358 -1.24344979e-14,5.01193358 -1.24344979e-14,4.72222222 C-1.24344979e-14,4.43251086 0.885444645,4.19753086 1.9771264,4.19753086 Z M81.0896805,4.19753086 C82.1827372,4.19753086 83.0681818,4.43251086 83.0681818,4.72222222 C83.0681818,5.01193358 82.1827372,5.24691358 81.0896805,5.24691358 C79.9979988,5.24691358 79.1125541,5.01193358 79.1125541,4.72222222 C79.1125541,4.43251086 79.9979988,4.19753086 81.0896805,4.19753086 Z M-6.92303594,4.19753086 C-5.82997928,4.19753086 -4.94453463,4.43251086 -4.94453463,4.72222222 C-4.94453463,5.01193358 -5.82997928,5.24691358 -6.92303594,5.24691358 C-8.01471769,5.24691358 -8.90016234,5.01193358 -8.90016234,4.72222222 C-8.90016234,4.43251086 -8.01471769,4.19753086 -6.92303594,4.19753086 Z M71.2006112,4.19753086 C72.2936679,4.19753086 73.1791126,4.43251086 73.1791126,4.72222222 C73.1791126,5.01193358 72.2936679,5.24691358 71.2006112,5.24691358 C70.1089295,5.24691358 69.2234848,5.01193358 69.2234848,4.72222222 C69.2234848,4.43251086 70.1089295,4.19753086 71.2006112,4.19753086 Z M127.568306,1.04938272 C128.661363,1.04938272 129.546807,1.28436271 129.546807,1.57407407 C129.546807,1.86378544 128.661363,2.09876543 127.568306,2.09876543 C126.476624,2.09876543 125.59118,1.86378544 125.59118,1.57407407 C125.59118,1.28436271 126.476624,1.04938272 127.568306,1.04938272 Z M57.3559143,1.04938272 C58.4489709,1.04938272 59.3344156,1.28436271 59.3344156,1.57407407 C59.3344156,1.86378544 58.4489709,2.09876543 57.3559143,2.09876543 C56.2642325,2.09876543 55.3787879,1.86378544 55.3787879,1.57407407 C55.3787879,1.28436271 56.2642325,1.04938272 57.3559143,1.04938272 Z M109.767981,1.04938272 C110.861038,1.04938272 111.746483,1.28436271 111.746483,1.57407407 C111.746483,1.86378544 110.861038,2.09876543 109.767981,2.09876543 C108.6763,2.09876543 107.790855,1.86378544 107.790855,1.57407407 C107.790855,1.28436271 108.6763,1.04938272 109.767981,1.04938272 Z M31.6443342,1.04938272 C32.7373909,1.04938272 33.6228355,1.28436271 33.6228355,1.57407407 C33.6228355,1.86378544 32.7373909,2.09876543 31.6443342,2.09876543 C30.5526524,2.09876543 29.6672078,1.86378544 29.6672078,1.57407407 C29.6672078,1.28436271 30.5526524,1.04938272 31.6443342,1.04938272 Z M101.856726,1.04938272 C102.949783,1.04938272 103.835227,1.28436271 103.835227,1.57407407 C103.835227,1.86378544 102.949783,2.09876543 101.856726,2.09876543 C100.765044,2.09876543 99.8795996,1.86378544 99.8795996,1.57407407 C99.8795996,1.28436271 100.765044,1.04938272 101.856726,1.04938272 Z M162.180048,1.04938272 C163.273105,1.04938272 164.15855,1.28436271 164.15855,1.57407407 C164.15855,1.86378544 163.273105,2.09876543 162.180048,2.09876543 C161.088367,2.09876543 160.202922,1.86378544 160.202922,1.57407407 C160.202922,1.28436271 161.088367,1.04938272 162.180048,1.04938272 Z M22.7441719,1.04938272 C23.8372285,1.04938272 24.7226732,1.28436271 24.7226732,1.57407407 C24.7226732,1.86378544 23.8372285,2.09876543 22.7441719,2.09876543 C21.6524901,2.09876543 20.7670455,1.86378544 20.7670455,1.57407407 C20.7670455,1.28436271 21.6524901,1.04938272 22.7441719,1.04938272 Z M92.9565636,1.04938272 C94.0496203,1.04938272 94.9350649,1.28436271 94.9350649,1.57407407 C94.9350649,1.86378544 94.0496203,2.09876543 92.9565636,2.09876543 C91.8648819,2.09876543 90.9794372,1.86378544 90.9794372,1.57407407 C90.9794372,1.28436271 91.8648819,1.04938272 92.9565636,1.04938272 Z M153.279886,1.04938272 C154.372943,1.04938272 155.258387,1.28436271 155.258387,1.57407407 C155.258387,1.86378544 154.372943,2.09876543 153.279886,2.09876543 C152.188204,2.09876543 151.30276,1.86378544 151.30276,1.57407407 C151.30276,1.28436271 152.188204,1.04938272 153.279886,1.04938272 Z M14.8329164,1.04938272 C15.9259731,1.04938272 16.8114177,1.28436271 16.8114177,1.57407407 C16.8114177,1.86378544 15.9259731,2.09876543 14.8329164,2.09876543 C13.7412347,2.09876543 12.85579,1.86378544 12.85579,1.57407407 C12.85579,1.28436271 13.7412347,1.04938272 14.8329164,1.04938272 Z M85.0453082,1.04938272 C86.1383649,1.04938272 87.0238095,1.28436271 87.0238095,1.57407407 C87.0238095,1.86378544 86.1383649,2.09876543 85.0453082,2.09876543 C83.9536265,2.09876543 83.0681818,1.86378544 83.0681818,1.57407407 C83.0681818,1.28436271 83.9536265,1.04938272 85.0453082,1.04938272 Z M145.368631,1.04938272 C146.461687,1.04938272 147.347132,1.28436271 147.347132,1.57407407 C147.347132,1.86378544 146.461687,2.09876543 145.368631,2.09876543 C144.276949,2.09876543 143.391504,1.86378544 143.391504,1.57407407 C143.391504,1.28436271 144.276949,1.04938272 145.368631,1.04938272 Z M49.4446589,1.04938272 C50.5377155,1.04938272 51.4231602,1.28436271 51.4231602,1.57407407 C51.4231602,1.86378544 50.5377155,2.09876543 49.4446589,2.09876543 C48.3529771,2.09876543 47.4675325,1.86378544 47.4675325,1.57407407 C47.4675325,1.28436271 48.3529771,1.04938272 49.4446589,1.04938272 Z M118.668144,1.04938272 C119.7612,1.04938272 120.646645,1.28436271 120.646645,1.57407407 C120.646645,1.86378544 119.7612,2.09876543 118.668144,2.09876543 C117.576462,2.09876543 116.691017,1.86378544 116.691017,1.57407407 C116.691017,1.28436271 117.576462,1.04938272 118.668144,1.04938272 Z M6.92166103,1.04938272 C8.01471769,1.04938272 8.90016234,1.28436271 8.90016234,1.57407407 C8.90016234,1.86378544 8.01471769,2.09876543 6.92166103,2.09876543 C5.82997928,2.09876543 4.94453463,1.86378544 4.94453463,1.57407407 C4.94453463,1.28436271 5.82997928,1.04938272 6.92166103,1.04938272 Z M76.1451459,1.04938272 C77.2382025,1.04938272 78.1236472,1.28436271 78.1236472,1.57407407 C78.1236472,1.86378544 77.2382025,2.09876543 76.1451459,2.09876543 C75.0534641,2.09876543 74.1680195,1.86378544 74.1680195,1.57407407 C74.1680195,1.28436271 75.0534641,1.04938272 76.1451459,1.04938272 Z M136.468468,1.04938272 C137.561525,1.04938272 138.44697,1.28436271 138.44697,1.57407407 C138.44697,1.86378544 137.561525,2.09876543 136.468468,2.09876543 C135.376787,2.09876543 134.491342,1.86378544 134.491342,1.57407407 C134.491342,1.28436271 135.376787,1.04938272 136.468468,1.04938272 Z M-2.96740824,1.04938272 C-1.87435157,1.04938272 -0.988906926,1.28436271 -0.988906926,1.57407407 C-0.988906926,1.86378544 -1.87435157,2.09876543 -2.96740824,2.09876543 C-4.05908999,2.09876543 -4.94453463,1.86378544 -4.94453463,1.57407407 C-4.94453463,1.28436271 -4.05908999,1.04938272 -2.96740824,1.04938272 Z M66.2560766,1.04938272 C67.3491333,1.04938272 68.2345779,1.28436271 68.2345779,1.57407407 C68.2345779,1.86378544 67.3491333,2.09876543 66.2560766,2.09876543 C65.1643949,2.09876543 64.2789502,1.86378544 64.2789502,1.57407407 C64.2789502,1.28436271 65.1643949,1.04938272 66.2560766,1.04938272 Z M39.5555896,1.04938272 C40.6486463,1.04938272 41.5340909,1.28436271 41.5340909,1.57407407 C41.5340909,1.86378544 40.6486463,2.09876543 39.5555896,2.09876543 C38.4639078,2.09876543 37.5784632,1.86378544 37.5784632,1.57407407 C37.5784632,1.28436271 38.4639078,1.04938272 39.5555896,1.04938272 Z" fill="#A3B1BF" mask="url(#mask-2)"></path>
                </g>
                <g id="Group-8" transform="translate(125.743273, 75.264976) rotate(-26.000000) translate(-125.743273, -75.264976) translate(49.243273, 29.764976)">
                    <path d="M148.38474,1.5 C149.075095,1.5 149.700095,1.77982203 150.152506,2.23223305 C150.604917,2.68464406 150.88474,3.30964406 150.88474,4 L150.88474,4 L150.88474,86.8268356 C150.88474,87.5171915 150.604917,88.1421915 150.152506,88.5946026 C149.700095,89.0470136 149.075095,89.3268356 148.384776,89.3268356 L148.384776,89.3268356 L137.944094,89.3265786 C137.906816,89.1457749 137.868236,88.9652728 137.828359,88.7850871 L137.828359,88.7850871 L146.843073,88.7851689 C147.762368,88.7851689 148.598824,88.4306723 149.223411,87.8511097 C149.867329,87.253609 150.285281,86.4165634 150.337584,85.4821698 L150.337584,85.4821698 L150.343073,5.54166667 C150.343073,4.57516835 149.951322,3.70016835 149.317947,3.06679293 C148.684571,2.43341751 147.809571,2.04166667 146.843073,2.04166667 L146.843073,2.04166667 L5.54166667,2.04166667 C4.62237143,2.04166667 3.78591518,2.39616328 3.16132861,2.97572589 C2.51741042,3.57322657 2.09945887,4.41027224 2.04715568,5.34466579 L2.04715568,5.34466579 L2.04166667,85.2851689 C2.04166667,86.2044642 2.39616328,87.0409204 2.97572589,87.665507 C3.57322121,88.3094194 4.41025721,88.7273692 5.34464063,88.7796785 L5.34464063,88.7796785 L63.4137429,88.7853809 C63.3738171,88.9656869 63.3352508,89.1461053 63.2980395,89.3266227 L63.2980395,89.3266227 L4,89.3268356 C3.30964406,89.3268356 2.68464406,89.0470136 2.23223305,88.5946026 C1.77982203,88.1421915 1.5,87.5171915 1.5,86.8268356 L1.5,86.8268356 L1.5,4 C1.5,3.30964406 1.77982203,2.68464406 2.23223305,2.23223305 C2.68464406,1.77982203 3.30964406,1.5 4,1.5 L4,1.5 Z" id="Combined-Shape" stroke="#A3B1BF" stroke-width="3" fill-rule="nonzero"></path>
                    <path d="M146.843073,3.54166667 C147.947642,3.54166667 148.843073,4.43709717 148.843073,5.54166667 L148.843073,85.2851689 C148.843073,86.3897384 147.947642,87.2851689 146.843073,87.2851689 L135.91088,87.2849611 C135.580261,86.0852102 135.188995,84.9029383 134.738775,83.7430638 L143.301406,83.7435023 C144.355768,83.7435023 145.219571,82.9276245 145.29592,81.8927646 L145.301406,81.7435023 L145.301406,9.08333333 C145.301406,7.97876383 144.405976,7.08333333 143.301406,7.08333333 L9.08333333,7.08333333 C8.02897154,7.08333333 7.16516821,7.89921112 7.08881907,8.93407099 L7.08333333,9.08333333 L7.08333333,81.7435023 C7.08333333,82.7978641 7.89921112,83.6616674 8.93407099,83.7380165 L9.08333333,83.7435023 L66.5085639,83.7430449 C66.0524002,84.9135995 65.6607158,86.0957248 65.3320466,87.2851693 L5.54166667,87.2851689 C4.43709717,87.2851689 3.54166667,86.3897384 3.54166667,85.2851689 L3.54166667,5.54166667 C3.54166667,4.43709717 4.43709717,3.54166667 5.54166667,3.54166667 L146.843073,3.54166667 Z" id="Combined-Shape" fill="#A3B1BF" fill-rule="nonzero" opacity="0.247698103"></path>
                    <path d="M143.301406,7.08333333 C144.405976,7.08333333 145.301406,7.97876383 145.301406,9.08333333 L145.301406,81.7435023 C145.301406,82.8480718 144.405976,83.7435023 143.301406,83.7435023 L134.738775,83.7430638 C131.520804,75.4528077 125.291018,68.3067808 116.667822,64.1009673 C98.5013179,55.2405712 76.5916863,62.7846623 67.7312903,80.9511664 C67.2815774,81.8732145 66.8741242,82.8049054 66.5081748,83.7440432 L9.08333333,83.7435023 C7.97876383,83.7435023 7.08333333,82.8480718 7.08333333,81.7435023 L7.08333333,9.08333333 C7.08333333,7.97876383 7.97876383,7.08333333 9.08333333,7.08333333 L143.301406,7.08333333 Z" id="Combined-Shape" fill="#BCD8FF" fill-rule="nonzero" opacity="0.101795015"></path>
                    <rect id="Rectangle-Copy-14" stroke="#A3B1BF" stroke-width="3" fill="#A3B1BF" fill-rule="nonzero" x="18.321692" y="17.2959714" width="52.4126325" height="2.92348928" rx="1.46174464"></rect>
                    <rect id="Rectangle-Copy-18" stroke="#A3B1BF" stroke-width="3" fill="#A3B1BF" fill-rule="nonzero" x="18.321692" y="35.0664392" width="52.4126325" height="2.92348928" rx="1.46174464"></rect>
                    <rect id="Rectangle-Copy-19" stroke="#A3B1BF" stroke-width="3" fill="#A3B1BF" fill-rule="nonzero" x="18.321692" y="52.8369071" width="52.4126325" height="2.92348928" rx="1.46174464"></rect>
                    <path d="M74.094842,70.6069888 C73.156377,71.5342499 72.2658424,72.5099125 71.4272883,73.5299261 L71.4272883,73.5299261 L19.7834367,73.5308642 C19.379787,73.5308642 19.0143509,73.3672529 18.7498271,73.1027291 C18.4853034,72.8382054 18.321692,72.4727692 18.321692,72.0691196 C18.321692,71.6654699 18.4853034,71.3000338 18.7498271,71.03551 C19.0143509,70.7709863 19.379787,70.6073749 19.7834473,70.6073749 L19.7834473,70.6073749 Z M132.601303,70.6073749 C133.004952,70.6073749 133.370389,70.7709863 133.634912,71.03551 C133.899436,71.3000338 134.063047,71.6654699 134.063047,72.0691196 C134.063047,72.4727692 133.899436,72.8382054 133.634912,73.1027291 C133.370389,73.3672529 133.004952,73.5308642 132.601778,73.5308643 L132.601778,73.5308643 L130.313704,73.5301401 C129.475145,72.510106 128.584605,71.5344238 127.646132,70.6071442 L127.646132,70.6071442 Z" id="Combined-Shape" stroke="#A3B1BF" stroke-width="3" fill="#A3B1BF" fill-rule="nonzero"></path>
                    <path d="M110.328816,13.821475 C117.695729,13.821475 123.688912,19.7982668 123.688912,27.1504523 C123.688912,34.5000163 117.696488,40.4771767 110.328816,40.4771767 C108.801575,40.4771767 107.333312,40.2200687 105.965254,39.7469395 C105.726723,39.9334797 105.446992,40.0763685 105.136053,40.1588442 C104.589048,40.3055764 92.6974028,43.680935 93.755143,56.2285627 L93.7942556,56.6409837 C93.9318389,57.9275124 93.0126417,59.083305 91.7411731,59.2225146 L91.7376665,59.2228958 C91.6550292,59.232348 91.5698768,59.2348928 91.4901144,59.2348928 C90.3195496,59.2348928 89.3142476,58.3445548 89.1892089,57.1423006 C87.9791897,45.6743855 95.260771,39.3008931 101.010713,36.6889742 C98.5205884,34.2675499 96.972107,30.8862148 96.972107,27.1504523 C96.972107,19.7982975 102.9649,13.821475 110.328816,13.821475 Z M123.494236,41.0334508 C123.768482,41.2715065 130.085222,46.9080438 129.599334,56.5562207 L129.572031,57.0043646 C129.482672,58.2633045 128.483782,59.236369 127.282353,59.2348928 L127.196126,59.2340977 L127.196126,59.2340977 L127.10964,59.2285318 C125.844651,59.1295498 124.895546,57.9717567 124.989742,56.6425389 L124.989817,56.6414801 C125.516685,49.307264 120.77898,44.946524 120.566659,44.7531448 L120.559669,44.7467784 C119.584813,43.8946642 119.450661,42.374032 120.259839,41.3481324 C121.068526,40.3270057 122.516043,40.1799579 123.494236,41.0334508 Z M110.329358,18.0863873 C105.321895,18.0863873 101.246796,22.1506266 101.246796,27.1500918 C101.246796,32.1475447 105.321874,36.2122645 110.329358,36.2122645 C115.339375,36.2122645 119.414223,32.1477954 119.414223,27.1500918 C119.414223,22.1506057 115.338859,18.0863873 110.329358,18.0863873 Z" id="Combined-Shape" fill="#A3B1BF"></path>
                </g>
                <g id="Group-10" transform="translate(133.402778, 74.375000)" fill="#A3B1BF" fill-rule="nonzero">
                    <path d="M36.5972222,0 C56.8093099,0 73.1944444,16.3851345 73.1944444,36.5972222 C73.1944444,56.8093099 56.8093099,73.1944444 36.5972222,73.1944444 C16.3851345,73.1944444 0,56.8093099 0,36.5972222 C0,16.3851345 16.3851345,0 36.5972222,0 Z M36.5972222,3.54166667 C18.341143,3.54166667 3.54166667,18.341143 3.54166667,36.5972222 C3.54166667,54.8533015 18.341143,69.6527778 36.5972222,69.6527778 C54.8533015,69.6527778 69.6527778,54.8533015 69.6527778,36.5972222 C69.6527778,18.341143 54.8533015,3.54166667 36.5972222,3.54166667 Z" id="Combined-Shape"></path>
                    <path d="M36.5972222,3.54166667 C54.8533015,3.54166667 69.6527778,18.341143 69.6527778,36.5972222 C69.6527778,54.8533015 54.8533015,69.6527778 36.5972222,69.6527778 C18.341143,69.6527778 3.54166667,54.8533015 3.54166667,36.5972222 C3.54166667,18.341143 18.341143,3.54166667 36.5972222,3.54166667 Z M36.5972222,7.08333333 C20.2971515,7.08333333 7.08333333,20.2971515 7.08333333,36.5972222 C7.08333333,52.897293 20.2971515,66.1111111 36.5972222,66.1111111 C52.897293,66.1111111 66.1111111,52.897293 66.1111111,36.5972222 C66.1111111,20.2971515 52.897293,7.08333333 36.5972222,7.08333333 Z" id="Combined-Shape" opacity="0.247698103"></path>
                </g>
                <path d="M45.4513889,132.222222 C46.2789309,132.222222 46.9497863,132.893078 46.9497863,133.72062 L46.9493333,137.216222 L50.446047,137.21688 C51.2735891,137.21688 51.9444444,137.887736 51.9444444,138.715278 C51.9444444,139.54282 51.2735891,140.213675 50.446047,140.213675 L46.9493333,140.213222 L46.9497863,143.709936 C46.9497863,144.537478 46.2789309,145.208333 45.4513889,145.208333 C44.6238468,145.208333 43.9529915,144.537478 43.9529915,143.709936 L43.9523333,140.213222 L40.4567308,140.213675 C39.6291887,140.213675 38.9583333,139.54282 38.9583333,138.715278 C38.9583333,137.887736 39.6291887,137.21688 40.4567308,137.21688 L43.9523333,137.216222 L43.9529915,133.72062 C43.9529915,132.893078 44.6238468,132.222222 45.4513889,132.222222 Z" id="Combined-Shape-Copy-6" fill="#A3B1BF" fill-rule="nonzero"></path>
                <path d="M213.090278,15.3472222 C213.91782,15.3472222 214.588675,16.0180776 214.588675,16.8456197 L214.588222,20.3412222 L218.084936,20.3418803 C218.912478,20.3418803 219.583333,21.0127357 219.583333,21.8402778 C219.583333,22.6678198 218.912478,23.3386752 218.084936,23.3386752 L214.588222,23.3382222 L214.588675,26.8349359 C214.588675,27.662478 213.91782,28.3333333 213.090278,28.3333333 C212.262736,28.3333333 211.59188,27.662478 211.59188,26.8349359 L211.591222,23.3382222 L208.09562,23.3386752 C207.268078,23.3386752 206.597222,22.6678198 206.597222,21.8402778 C206.597222,21.0127357 207.268078,20.3418803 208.09562,20.3418803 L211.591222,20.3412222 L211.59188,16.8456197 C211.59188,16.0180776 212.262736,15.3472222 213.090278,15.3472222 Z" id="Combined-Shape-Copy-9" fill="#A3B1BF" fill-rule="nonzero"></path>
                <circle id="Oval" stroke="#A3B1BF" stroke-width="3" fill-rule="nonzero" cx="60.7986111" cy="28.9236111" r="7.35416667"></circle>
                <circle id="Oval-Copy-7" stroke="#A3B1BF" stroke-width="3" fill-rule="nonzero" cx="145.798611" cy="164.6875" r="3.8125"></circle>
                <circle id="Oval-Copy-19" stroke="#A3B1BF" stroke-width="3" fill-rule="nonzero" cx="234.340278" cy="158.784722" r="1.45138889"></circle>
                <circle id="Oval-Copy-20" stroke="#A3B1BF" stroke-width="3" fill-rule="nonzero" cx="11.2152778" cy="72.6041667" r="1.45138889"></circle>
                <path d="M170,132.222222 C165.964861,132.222222 162.680556,128.878889 162.680556,124.769375 C162.680556,122.080069 164.085417,119.718958 166.186806,118.408542 C164.683958,116.399236 163.862292,113.216458 163.201181,110.16 C162.325208,106.114236 161.736111,101.486458 161.736111,99.7014583 C161.736111,94.8505556 165.443056,90.9027778 170,90.9027778 C174.556944,90.9027778 178.263889,94.8505556 178.263889,99.7014583 C178.263889,101.488819 177.674792,106.117778 176.8,110.161181 C176.137708,113.217639 175.316042,116.400417 173.813194,118.408542 C175.915764,119.720139 177.319444,122.080069 177.319444,124.769375 C177.319444,128.878889 174.036319,132.222222 170,132.222222" id="Fill-1" fill="#A3B1BF" fill-rule="nonzero" opacity="0.247698103"></path>
                <path d="M166.222576,124.768785 C166.222576,122.607187 167.914312,120.856424 170.000354,120.856424 C172.086396,120.856424 173.778132,122.607187 173.778132,124.768785 C173.778132,126.929201 172.086396,128.679965 170.000354,128.679965 C167.914312,128.679965 166.222576,126.929201 166.222576,124.768785 M170.000354,94.4438542 C172.610562,94.4438542 174.722576,96.7955208 174.722576,99.7020486 C174.722576,102.608576 172.60584,116.942882 170.000354,116.942882 C167.394868,116.942882 165.278132,102.601493 165.278132,99.7020486 C165.278132,96.8026042 167.388965,94.4438542 170.000354,94.4438542" id="Fill-3" fill="#A3B1BF"></path>
                <path d="M222.669306,33.218 C222.149861,33.218 221.633958,32.9901528 221.284514,32.5521667 C220.683611,31.8001528 219.928056,31.0316111 219.037917,30.2677917 C218.295347,29.6302917 218.210347,28.5123056 218.847847,27.7709167 C219.484167,27.0271667 220.602153,26.9445278 221.344722,27.5796667 C222.4025,28.4875139 223.313889,29.4177917 224.051736,30.3421667 C224.662083,31.1071667 224.536944,32.2204306 223.773125,32.8319583 C223.446111,33.0916806 223.056528,33.218 222.669306,33.218 M223.636181,43.0508472 C223.342222,43.0508472 223.043542,42.9776528 222.768472,42.823 C221.916111,42.3425139 221.615069,41.261125 222.095556,40.4099444 C222.606736,39.5056389 222.924306,38.6084167 223.041181,37.7430694 C223.172222,36.7761944 224.071806,36.08675 225.032778,36.2260556 C226.002014,36.3559167 226.680833,37.2484167 226.550972,38.2176528 C226.373889,39.52925 225.912292,40.8526528 225.180347,42.1500833 C224.855694,42.727375 224.254792,43.0508472 223.636181,43.0508472 M216.130208,50.4080694 C215.564722,50.4080694 215.009861,50.1377222 214.666319,49.6348056 C214.115,48.8273056 214.322778,47.7258472 215.130278,47.1733472 C216.117222,46.5004306 217.027431,45.8216111 217.836111,45.1545972 C218.594028,44.5324444 219.708472,44.6422361 220.329444,45.39425 C220.951597,46.1498056 220.844167,47.2654306 220.088611,47.8875833 C219.198472,48.6218889 218.202083,49.3656389 217.127778,50.0999444 C216.822014,50.3077222 216.47375,50.4080694 216.130208,50.4080694 M206.897083,55.6343889 C206.239514,55.6343889 205.607917,55.2684167 205.302153,54.6368194 C204.875972,53.756125 205.243125,52.6971667 206.122639,52.2709861 C207.206389,51.7444583 208.239375,51.2214722 209.222778,50.6996667 C210.088125,50.2368889 211.158889,50.568625 211.618125,51.4339722 C212.076181,52.2981389 211.746806,53.3689028 210.883819,53.8281389 C209.862639,54.3688333 208.791875,54.9130694 207.667986,55.4573056 C207.420069,55.5777222 207.155625,55.6343889 206.897083,55.6343889 M43.8411111,102.600431 C43.1646528,102.600431 42.5177083,102.208486 42.22375,101.550917 C41.8247222,100.657236 42.2249306,99.6100833 43.1186111,99.2110556 C44.1775694,98.7400139 45.2778472,98.2689722 46.420625,97.79675 C47.3261111,97.424875 48.3602778,97.8557778 48.7321528,98.7589028 C49.1052083,99.6632083 48.6743056,100.697375 47.77,101.071611 C46.6602778,101.528486 45.5906944,101.986542 44.5624306,102.446958 C44.3275,102.550847 44.083125,102.600431 43.8411111,102.600431 M34.4179167,107.479667 C33.8229167,107.479667 33.2432639,107.180986 32.9079861,106.637931 C32.395625,105.805639 32.6529861,104.715986 33.4852778,104.202444 C34.4686806,103.595639 35.5276389,102.984111 36.6361806,102.383208 C37.4979861,101.916889 38.5722917,102.236819 39.0374306,103.095083 C39.50375,103.954528 39.185,105.030014 38.3255556,105.496333 C37.2748611,106.066542 36.2713889,106.645014 35.3458333,107.216403 C35.0554167,107.394667 34.7343056,107.479667 34.4179167,107.479667 M26.3547222,114.290292 C25.9852083,114.290292 25.6133333,114.174597 25.2945833,113.937306 C24.511875,113.35175 24.3525,112.242028 24.9380556,111.458139 C25.64875,110.507792 26.5235417,109.551542 27.5352778,108.614181 C28.2530556,107.950708 29.3734028,107.995569 30.0380556,108.712167 C30.7015278,109.431125 30.6578472,110.550292 29.9400694,111.214944 C29.0853472,112.004736 28.3569444,112.801611 27.77375,113.579597 C27.4254861,114.044736 26.8942361,114.290292 26.3547222,114.290292 M25.2272917,124.195153 C24.5874306,124.195153 23.9688194,123.84925 23.6536111,123.241264 C22.9677083,121.920222 22.5580556,120.568486 22.4376389,119.223833 C22.3502778,118.248694 23.0692361,117.38925 24.0431944,117.301889 C25.0041667,117.210986 25.8777778,117.933486 25.9651389,118.907444 C26.0442361,119.7905 26.3240278,120.699528 26.79625,121.608556 C27.2472222,122.476264 26.9095833,123.545847 26.041875,123.996819 C25.7809722,124.132583 25.5023611,124.195153 25.2272917,124.195153 M32.6470833,131.645639 C32.3047222,131.645639 31.96,131.546472 31.6554167,131.339875 C30.5740278,130.607931 29.5740972,129.859458 28.6804167,129.116889 C27.9284028,128.491194 27.826875,127.374389 28.4525694,126.622375 C29.0759028,125.871542 30.1927083,125.770014 30.9459028,126.394528 C31.7498611,127.063903 32.6565278,127.741542 33.6411111,128.409736 C34.4509722,128.957514 34.6634722,130.058972 34.1145139,130.868833 C33.7721528,131.374111 33.2149306,131.645639 32.6470833,131.645639" id="Fill-1" fill="#A3B1BF" fill-rule="nonzero" opacity="0.253859747"></path>
                <path d="M223.892833,30.8234792 C223.666167,30.8234792 223.435958,30.7797986 223.214014,30.6877153 C222.183389,30.2591736 221.102,29.8294514 219.971028,29.3985486 C219.057278,29.0491042 218.600403,28.0267431 218.948667,27.1118125 C219.296931,26.1992431 220.320472,25.7388264 221.235403,26.0894514 C222.399431,26.5345208 223.512694,26.9760486 224.572833,27.4175764 C225.475958,27.7929931 225.9045,28.8295208 225.529083,29.7326458 C225.24575,30.4126458 224.587,30.8234792 223.892833,30.8234792 M233.395125,35.5468819 C233.075194,35.5468819 232.751722,35.4607014 232.461306,35.2788958 C231.569986,34.7240347 230.573597,34.1573681 229.498111,33.5954236 C228.631583,33.1409097 228.296306,32.0713264 228.750819,31.2047986 C229.204153,30.3394514 230.274917,30.0041736 231.141444,30.4563264 C232.293667,31.0595903 233.366792,31.6711181 234.333667,32.2732014 C235.163597,32.7902847 235.417417,33.8822986 234.900333,34.7122292 C234.565056,35.2505625 233.986583,35.5468819 233.395125,35.5468819 M240.204569,43.2724375 C239.319153,43.2724375 238.554153,42.6101458 238.447903,41.7105625 C238.361722,40.9809792 238.002833,40.1970903 237.380681,39.3813264 C236.788042,38.6033403 236.939153,37.4912569 237.717139,36.8986181 C238.495125,36.3059792 239.607208,36.4559097 240.198667,37.2350764 C241.209222,38.5620208 241.803042,39.9279236 241.965958,41.2926458 C242.080472,42.2642431 241.386306,43.1461181 240.414708,43.2594514 C240.345056,43.2688958 240.274222,43.2724375 240.204569,43.2724375 M234.091653,51.1502847 C233.478944,51.1502847 232.882764,50.8315347 232.554569,50.2625069 C232.067,49.4148681 232.358597,48.3322986 233.207417,47.8447292 C234.249847,47.2438264 235.157694,46.6334792 235.901444,46.0302153 C236.661722,45.4116042 237.776167,45.5308403 238.392417,46.2911181 C239.008667,47.0502153 238.891792,48.1646597 238.132694,48.7809097 C237.241375,49.5022292 236.178875,50.2211875 234.973528,50.9141736 C234.694917,51.0735486 234.391514,51.1502847 234.091653,51.1502847 M224.361514,55.3672292 C223.627208,55.3672292 222.940125,54.9056319 222.687486,54.1725069 C222.368736,53.2481319 222.861028,52.2411181 223.785403,51.9223681 C224.932903,51.5268819 226.017833,51.1290347 227.039014,50.7276458 C227.948042,50.3722986 228.976306,50.8185486 229.334014,51.7299375 C229.691722,52.6401458 229.243111,53.6684097 228.331722,54.0249375 C227.266861,54.4428542 226.135889,54.8584097 224.938806,55.2704236 C224.747556,55.3365347 224.552764,55.3672292 224.361514,55.3672292 M214.181583,58.3977153 C213.395333,58.3977153 212.677556,57.8711875 212.469778,57.0743125 C212.221861,56.1286875 212.789708,55.1606319 213.735333,54.9138958 C214.902903,54.6093125 216.030333,54.3035486 217.117625,53.9954236 C218.060889,53.7333403 219.038389,54.2752153 219.304014,55.2172986 C219.570819,56.1582014 219.023042,57.1368819 218.083319,57.4036875 C216.972417,57.7177153 215.821375,58.0293819 214.630194,58.3410486 C214.480264,58.3800069 214.329153,58.3977153 214.181583,58.3977153 M203.842278,60.8402847 C203.026514,60.8402847 202.292208,60.2724375 202.112764,59.4425069 C201.906167,58.4874375 202.515333,57.5441736 203.470403,57.3387569 C204.645056,57.0849375 205.791375,56.8311181 206.908181,56.5761181 C207.859708,56.3624375 208.811236,56.9574375 209.028458,57.9101458 C209.245681,58.8640347 208.648319,59.8132014 207.694431,60.0304236 C206.564639,60.2877847 205.405333,60.5439653 204.217694,60.8001458 C204.092556,60.8272986 203.966236,60.8402847 203.842278,60.8402847 M35.7524167,85.3580625 C34.9673472,85.3580625 34.25075,84.8327153 34.0417917,84.0382014 C33.7926944,83.0925764 34.357,82.1245208 35.302625,81.8754236 C36.428875,81.5779236 37.5834583,81.2851458 38.7651944,80.9959097 C39.7190833,80.7645208 40.6741528,81.3441736 40.9067222,82.2957014 C41.1392917,83.2436875 40.5584583,84.2034792 39.6081111,84.4360486 C38.4464444,84.7205625 37.3119306,85.0086181 36.2045694,85.3002153 C36.0534583,85.3403542 35.9023472,85.3580625 35.7524167,85.3580625 M25.5724861,88.3767431 C24.8322778,88.3767431 24.1428333,87.9092431 23.8937361,87.1702153 C23.5820694,86.2434792 24.0802639,85.2400069 25.007,84.9271597 C26.1072778,84.5576458 27.2453333,84.1916736 28.4211667,83.8292431 C29.3573472,83.5423681 30.3466528,84.0677153 30.6347083,85.0015347 C30.9227639,85.9365347 30.3985972,86.9258403 29.4635972,87.2150764 C28.3172778,87.5668819 27.2087361,87.9234097 26.1367917,88.2846597 C25.9502639,88.3472292 25.7590139,88.3767431 25.5724861,88.3767431 M15.7054028,92.2914653 C15.0431111,92.2914653 14.4079722,91.9184097 14.1045694,91.2809097 C13.6854722,90.3978542 14.0620694,89.3400764 14.945125,88.9221597 C15.9958194,88.4227847 17.1102639,87.9269514 18.2577639,87.4488264 C19.1620694,87.0745903 20.1974167,87.4995903 20.5740139,88.4015347 C20.9494306,89.3046597 20.52325,90.3423681 19.620125,90.7177847 C18.52575,91.1734792 17.4644306,91.6468819 16.4645,92.1202847 C16.2189444,92.2371597 15.9604028,92.2914653 15.7054028,92.2914653 M6.72963889,97.8920208 C6.23616667,97.8920208 5.74623611,97.6866042 5.39561111,97.2863958 C4.75220833,96.5497292 4.82776389,95.4317431 5.56443056,94.7871597 C6.44866667,94.0150764 7.45213889,93.2488958 8.54651389,92.5098681 C9.35755556,91.9620903 10.4578333,92.1769514 11.0044306,92.9868125 C11.5522083,93.7978542 11.3385278,94.8981319 10.5274861,95.4447292 C9.55352778,96.1022986 8.66811111,96.7775764 7.89484722,97.4540347 C7.55838889,97.7468125 7.14283333,97.8920208 6.72963889,97.8920208 M1.77248611,106.881951 C1.75595833,106.881951 1.74061111,106.881951 1.72408333,106.880771 C0.746583333,106.854799 -0.0243194444,106.042576 0.000472222222,105.065076 C0.0370694444,103.69091 0.323944444,102.329729 0.855194444,101.021674 C1.22234722,100.113826 2.25179167,99.6758403 3.162,100.046535 C4.06748611,100.412507 4.50429167,101.445493 4.13713889,102.35216 C3.76644444,103.26591 3.56575,104.209174 3.54095833,105.15716 C3.51616667,106.119312 2.72873611,106.881951 1.77248611,106.881951 M5.80880556,116.446812 C5.297625,116.446812 4.79116667,116.22841 4.44172222,115.80341 C3.58227778,114.76334 2.83970833,113.72091 2.23408333,112.704451 C1.73352778,111.863896 2.00741667,110.777785 2.84797222,110.277229 C3.68852778,109.776674 4.77581944,110.049382 5.27519444,110.889937 C5.78991667,111.752924 6.42741667,112.647785 7.17234722,113.548549 C7.79568056,114.302924 7.68825,115.419729 6.93505556,116.043062 C6.6045,116.31459 6.20429167,116.446812 5.80880556,116.446812 M13.5933889,123.631674 C13.2215139,123.631674 12.8472778,123.515979 12.5285278,123.275146 C11.5203333,122.514868 10.5640833,121.751049 9.68338889,121.007299 C8.93609722,120.374521 8.84283333,119.257715 9.47443056,118.510424 C10.1060278,117.765493 11.2240139,117.671049 11.970125,118.302646 C12.8012361,119.005076 13.7067222,119.727576 14.6617917,120.447715 C15.4421389,121.036812 15.5979722,122.146535 15.008875,122.928062 C14.6606111,123.388479 14.1305417,123.631674 13.5933889,123.631674 M22.4310278,129.520285 C22.1205417,129.520285 21.8065139,129.438826 21.522,129.267646 C20.4630417,128.633687 19.4442222,128.003271 18.4667222,127.379937 C17.6426944,126.85341 17.4006806,125.759035 17.9272083,124.933826 C18.4537361,124.110979 19.5492917,123.868965 20.3721389,124.394312 C21.3236667,125.001118 22.3129722,125.612646 23.3435972,126.230076 C24.1817917,126.732993 24.4533194,127.820285 23.9515833,128.65966 C23.6186667,129.21334 23.0319306,129.520285 22.4310278,129.520285 M31.7208194,134.671049 C31.4469306,134.671049 31.1683194,134.607299 30.9085972,134.472715 C29.8260278,133.911951 28.7741528,133.35709 27.7494306,132.80459 C26.8888056,132.339451 26.5676944,131.265146 27.0328333,130.405701 C27.4967917,129.543896 28.5699167,129.222785 29.4317222,129.686743 C30.4387361,130.229799 31.4740833,130.776396 32.5377639,131.327715 C33.4054722,131.777507 33.7454722,132.84591 33.2956806,133.713618 C32.9804722,134.322785 32.3618611,134.671049 31.7208194,134.671049" id="Fill-1" fill="#A3B1BF"></path>
            </g>
        </g>
    </g>
</svg>