<?xml version="1.0" encoding="UTF-8"?>
<svg width="262px" height="146px" viewBox="0 0 262 146" version="1.1" xmlns="http://www.w3.org/2000/svg" xmlns:xlink="http://www.w3.org/1999/xlink">
    <title>授权失败</title>
    <defs>
        <ellipse id="path-1" cx="42" cy="7.5" rx="42" ry="7.5"></ellipse>
    </defs>
    <g id="框架设计-过程版" stroke="none" stroke-width="1" fill="none" fill-rule="evenodd">
        <g id="缺省图" transform="translate(-1574.000000, -639.000000)">
            <g id="授权失败" transform="translate(1574.000000, 639.000000)">
                <g id="Group-7" transform="translate(102.000000, 131.000000)">
                    <mask id="mask-2" fill="white">
                        <use xlink:href="#path-1"></use>
                    </mask>
                    <use id="Mask" fill="#A3B1BF" fill-rule="nonzero" opacity="0.248516555" xlink:href="#path-1"></use>
                    <g mask="url(#mask-2)" stroke="#A3B1BF">
                        <g transform="translate(43.000000, 7.500000) rotate(90.000000) translate(-43.000000, -7.500000) translate(35.500000, -30.500000)">
                            <path d="" id="Stroke-181" transform="translate(14.005292, 16.522412) rotate(90.000000) translate(-14.005292, -16.522412) "></path>
                            <path d="" id="Stroke-181-Copy-3" transform="translate(1.358240, 16.169464) rotate(90.000000) translate(-1.358240, -16.169464) "></path>
                            <path d="" id="Stroke-181-Copy-5" transform="translate(1.358240, 7.574249) rotate(90.000000) translate(-1.358240, -7.574249) "></path>
                            <path d="" id="Stroke-181-Copy-2" transform="translate(7.604114, 12.482940) rotate(90.000000) translate(-7.604114, -12.482940) "></path>
                            <path d="" id="Stroke-181-Copy-4" transform="translate(7.819147, 2.976104) rotate(90.000000) translate(-7.819147, -2.976104) "></path>
                            <path d="" id="Stroke-181-Copy" transform="translate(14.005292, 8.522412) rotate(90.000000) translate(-14.005292, -8.522412) "></path>
                            <path d="" id="Stroke-185" transform="translate(14.005292, 25.522412) rotate(90.000000) translate(-14.005292, -25.522412) "></path>
                            <path d="" id="Stroke-185-Copy-2" transform="translate(1.352948, 25.517120) rotate(90.000000) translate(-1.352948, -25.517120) "></path>
                            <path d="" id="Stroke-185-Copy" transform="translate(7.819147, 21.296796) rotate(90.000000) translate(-7.819147, -21.296796) "></path>
                            <path d="" id="Stroke-189" transform="translate(14.005292, 33.522412) rotate(90.000000) translate(-14.005292, -33.522412) "></path>
                            <path d="" id="Stroke-189-Copy-2" transform="translate(1.352948, 33.517120) rotate(90.000000) translate(-1.352948, -33.517120) "></path>
                            <path d="" id="Stroke-189-Copy" transform="translate(7.819147, 29.296796) rotate(90.000000) translate(-7.819147, -29.296796) "></path>
                            <path d="" id="Stroke-193" transform="translate(14.005292, 42.522412) rotate(90.000000) translate(-14.005292, -42.522412) "></path>
                            <path d="" id="Stroke-193-Copy-2" transform="translate(1.352948, 42.517120) rotate(90.000000) translate(-1.352948, -42.517120) "></path>
                            <path d="" id="Stroke-193-Copy" transform="translate(7.819147, 38.296796) rotate(90.000000) translate(-7.819147, -38.296796) "></path>
                            <path d="" id="Stroke-197" stroke-opacity="0.85" transform="translate(14.005292, 50.522412) rotate(90.000000) translate(-14.005292, -50.522412) "></path>
                            <path d="" id="Stroke-197-Copy-2" stroke-opacity="0.85" transform="translate(1.352948, 50.517120) rotate(90.000000) translate(-1.352948, -50.517120) "></path>
                            <path d="" id="Stroke-197-Copy" stroke-opacity="0.85" transform="translate(7.819147, 46.296796) rotate(90.000000) translate(-7.819147, -46.296796) "></path>
                            <path d="" id="Stroke-201" transform="translate(14.005292, 59.522412) rotate(90.000000) translate(-14.005292, -59.522412) "></path>
                            <path d="" id="Stroke-201-Copy-4" transform="translate(1.358240, 59.169464) rotate(90.000000) translate(-1.358240, -59.169464) "></path>
                            <path d="" id="Stroke-201-Copy-5" transform="translate(1.352948, 68.730499) rotate(90.000000) translate(-1.352948, -68.730499) "></path>
                            <path d="" id="Stroke-201-Copy-2" transform="translate(7.819147, 55.296796) rotate(90.000000) translate(-7.819147, -55.296796) "></path>
                            <path d="" id="Stroke-201-Copy" transform="translate(13.981635, 67.522412) rotate(90.000000) translate(-13.981635, -67.522412) "></path>
                            <path d="" id="Stroke-201-Copy-3" transform="translate(7.580458, 63.506597) rotate(90.000000) translate(-7.580458, -63.506597) "></path>
                            <path d="" id="Stroke-201-Copy-6" transform="translate(7.580458, 73.241949) rotate(90.000000) translate(-7.580458, -73.241949) "></path>
                        </g>
                    </g>
                </g>
                <path d="M84,33 L84,42.8701145 C83.6062992,42.7684101 83.1932985,42.7142857 82.7675812,42.7142857 L60.9337676,42.7142857 C58.235308,42.7142857 56.0477742,40.5396688 56.0477742,37.8571429 C56.0477742,35.1746169 58.235308,33 60.9337676,33 L84,33 Z M84,52.2727426 L84,71.474 C84,80.3899144 88.0543691,88.215283 93.8768252,94.8562785 C94.6562597,96.9844961 95.6560039,99.0329902 96.8331512,101 L80.4777416,101 C77.7792819,101 75.5917481,98.8253831 75.5917481,96.1428571 C75.5917481,93.4603312 77.7792819,91.2857143 80.4777416,91.2857143 L82.1064061,91.2857143 C84.8048658,91.2857143 86.9923996,89.1110974 86.9923996,86.4285714 C86.9923996,83.7460455 84.8048658,81.5714286 82.1064061,81.5714286 L44.8859935,81.5714286 C42.1875338,81.5714286 40,79.3968116 40,76.7142857 C40,74.0317598 42.1875338,71.8571429 44.8859935,71.8571429 L73.8609789,71.8571429 C76.5594386,71.8571429 78.7469724,69.6825259 78.7469724,67 C78.7469724,64.3174741 76.5594386,62.1428571 73.8609789,62.1428571 L69.6361605,62.1428571 C66.9377008,62.1428571 64.750167,59.9682402 64.750167,57.2857143 C64.750167,54.6031884 66.9377008,52.4285714 69.6361605,52.4285714 L82.7675812,52.4285714 C83.1932985,52.4285714 83.6062992,52.374447 84,52.2727426 Z M194,33 L198.827362,33 C201.525821,33 203.713355,35.1746169 203.713355,37.8571429 C203.713355,40.5396688 201.525821,42.7142857 198.827362,42.7142857 L194,42.7142857 L194,33 Z M194,52.4285714 L211.856678,52.4285714 C214.555137,52.4285714 216.742671,54.6031884 216.742671,57.2857143 C216.742671,59.9682402 214.555137,62.1428571 211.856678,62.1428571 L194,62.1428571 L194,52.4285714 Z M193.199082,91.2857143 L215.114007,91.2857143 C217.812466,91.2857143 220,93.4603312 220,96.1428571 C220,98.8253831 217.812466,101 215.114007,101 L189.166849,101 C190.989116,97.9549976 192.38625,94.7147249 193.199082,91.2857143 Z M197.75,71 L225.25,71 C227.321068,71 229,73.2385763 229,76 C229,78.7614237 227.321068,81 225.25,81 L197.75,81 C195.678932,81 194,78.7614237 194,76 C194,73.2385763 195.678932,71 197.75,71 Z" id="Shape" fill="#A3B1BF" fill-rule="nonzero" opacity="0.14969308"></path>
                <g id="Group-36" transform="translate(84.000000, 0.000000)" fill="#A3B1BF" fill-rule="nonzero">
                    <polygon id="Fill-1" points="83.6641 85.8335 75.2021 94.2255 59.4631 78.6165 43.7231 94.2255 35.2611 85.8335 51.0001 70.2255 35.2611 54.6165 43.7231 46.2255 59.4631 61.8335 75.2021 46.2255 83.6641 54.6165 67.9251 70.2255"></polygon>
                    <path d="M75.2017,42.0004 L59.4627,57.6084 L43.7227,42.0004 L30.9997,54.6164 L46.7387,70.2254 L30.9997,85.8334 L43.7227,98.4504 L59.4627,82.8414 L75.2017,98.4504 L87.9247,85.8334 L72.1857,70.2254 L87.9247,54.6164 L75.2017,42.0004 Z M75.2017,46.2254 L83.6647,54.6164 L67.9247,70.2254 L83.6647,85.8334 L75.2017,94.2244 L59.4627,78.6174 L43.7227,94.2244 L35.2607,85.8334 L51.0007,70.2254 L35.2607,54.6164 L43.7227,46.2254 L59.4627,61.8334 L75.2017,46.2254 Z" id="Fill-2" opacity="0.25297619"></path>
                    <path d="M59,13 L110,31.338 L110,84.474 C110,116.096 59,134 59,134 C59,134 8,116.096 8,84.474 L8,84.474 L8,31.338 L59,13 Z M59,16.1878 L11,33.4468 L11,84.4738 C11,111.2598 52.042,128.1318 59.001,130.7988 C65.965,128.1358 107,111.2938 107,84.4738 L107,84.4738 L107,33.4468 L59,16.1878 Z" id="Combined-Shape"></path>
                    <path d="M59,16.1878 L107,33.4468 L107,84.4738 C107,111.2938 65.965,128.1358 59.001,130.7988 C52.042,128.1318 11,111.2598 11,84.4738 L11,33.4468 L59,16.1878 Z M59,19.3757 L14,35.5567 L14,84.4737 C14,108.2597 51.011,124.3757 59.002,127.5767 C66.992,124.3817 104,108.2947 104,84.4737 L104,84.4737 L104,35.5567 L59,19.3757 Z" id="Combined-Shape" opacity="0.247698103"></path>
                    <path d="M51,-6.25277607e-13 L102,18.338 L102,28.461 L99,27.382 L99,20.4468 L51,3.1878 L3,20.4468 L3,71.4738 C3,77.3804564 4.99570435,82.8050356 8.18157508,87.7015268 C8.45326812,90.1794351 9.03767725,92.5657418 9.8779823,94.8594375 C4.26200023,88.4529482 0.289854982,80.9447171 0.015198,72.4185404 L-9.09494702e-13,71.474 L-9.09494702e-13,18.338 L51,-6.25277607e-13 Z" id="Combined-Shape"></path>
                    <path d="M51,3.1878 L99,20.4468 L99,27.3828 L59,13 L8,31.338 L8,84.474 C8,85.5664902 8.06087327,86.6426067 8.17841365,87.7021769 C4.99570435,82.8050356 3,77.3804564 3,71.4738 L3,20.4468 L51,3.1878 Z" id="Combined-Shape" opacity="0.149809338"></path>
                </g>
                <circle id="Oval" stroke="#A3B1BF" stroke-width="3" fill-rule="nonzero" cx="226" cy="83" r="5.5"></circle>
                <circle id="Oval-Copy-9" stroke="#A3B1BF" stroke-width="3" fill-rule="nonzero" cx="61" cy="24" r="5.5"></circle>
                <circle id="Oval-Copy-12" stroke="#A3B1BF" stroke-width="3" fill-rule="nonzero" cx="72.5" cy="138.5" r="3"></circle>
                <circle id="Oval-Copy-8" stroke="#A3B1BF" stroke-width="3" fill-rule="nonzero" cx="226" cy="137" r="1.5"></circle>
                <circle id="Oval-Copy-11" stroke="#A3B1BF" stroke-width="3" fill-rule="nonzero" cx="61" cy="101" r="1.5"></circle>
                <path d="M214.5,7 C215.328427,7 216,7.67157288 216,8.5 L216,12 L219.5,12 C220.328427,12 221,12.6715729 221,13.5 C221,14.3284271 220.328427,15 219.5,15 L216,15 L216,18.5 C216,19.3284271 215.328427,20 214.5,20 C213.671573,20 213,19.3284271 213,18.5 L213,15 L209.5,15 C208.671573,15 208,14.3284271 208,13.5 C208,12.6715729 208.671573,12 209.5,12 L213,12 L213,8.5 C213,7.67157288 213.671573,7 214.5,7 Z" id="Combined-Shape" fill="#A3B1BF" fill-rule="nonzero"></path>
                <path d="M255.5,108 C256.328427,108 257,108.671573 257,109.5 L257,113 L260.5,113 C261.328427,113 262,113.671573 262,114.5 C262,115.328427 261.328427,116 260.5,116 L257,116 L257,119.5 C257,120.328427 256.328427,121 255.5,121 C254.671573,121 254,120.328427 254,119.5 L254,116 L250.5,116 C249.671573,116 249,115.328427 249,114.5 C249,113.671573 249.671573,113 250.5,113 L254,113 L254,109.5 C254,108.671573 254.671573,108 255.5,108 Z" id="Combined-Shape-Copy-6" fill="#A3B1BF" fill-rule="nonzero"></path>
                <path d="M10.2175144,52.4393398 C10.8033009,53.0251263 10.8033009,53.9748737 10.2175144,54.5606602 L8.449,56.328 L10.2175144,58.0961941 C10.8033009,58.6819805 10.8033009,59.631728 10.2175144,60.2175144 C9.63172798,60.8033009 8.68198052,60.8033009 8.09619408,60.2175144 L6.328,58.449 L4.56066017,60.2175144 C3.97487373,60.8033009 3.02512627,60.8033009 2.43933983,60.2175144 C1.85355339,59.631728 1.85355339,58.6819805 2.43933983,58.0961941 L4.207,56.328 L2.43933983,54.5606602 C1.85355339,53.9748737 1.85355339,53.0251263 2.43933983,52.4393398 C3.02512627,51.8535534 3.97487373,51.8535534 4.56066017,52.4393398 L6.328,54.207 L8.09619408,52.4393398 C8.68198052,51.8535534 9.63172798,51.8535534 10.2175144,52.4393398 Z" id="Combined-Shape-Copy-3" fill="#A3B1BF" fill-rule="nonzero" transform="translate(6.328427, 56.328427) rotate(45.000000) translate(-6.328427, -56.328427) "></path>
                <path d="M224.150604,21.9895 C223.983604,21.9895 223.813604,21.9625 223.647604,21.9025 C222.730604,21.5765 221.792604,21.2475 220.832604,20.9175 C220.047604,20.6475 219.631604,19.7945 219.900604,19.0105 C220.171604,18.2275 221.027604,17.8155 221.806604,18.0795 C222.778604,18.4135 223.726604,18.7465 224.653604,19.0765 C225.433604,19.3535 225.841604,20.2125 225.563604,20.9925 C225.344604,21.6065 224.766604,21.9895 224.150604,21.9895 M232.549604,25.2155 C232.358604,25.2155 232.164604,25.1785 231.975604,25.1005 C231.087604,24.7315 230.169604,24.3615 229.220604,23.9895 C228.450604,23.6855 228.070604,22.8155 228.373604,22.0445 C228.676604,21.2725 229.546604,20.8945 230.318604,21.1965 C231.284604,21.5765 232.220604,21.9545 233.126604,22.3295 C233.890604,22.6475 234.254604,23.5245 233.936604,24.2905 C233.696604,24.8675 233.138604,25.2155 232.549604,25.2155 M240.723604,28.9765 C240.490604,28.9765 240.254604,28.9235 240.034604,28.8075 C239.196604,28.3735 238.316604,27.9365 237.393604,27.4985 C236.645604,27.1425 236.327604,26.2485 236.682604,25.5005 C237.039604,24.7515 237.932604,24.4305 238.680604,24.7895 C239.636604,25.2435 240.547604,25.6955 241.415604,26.1455 C242.150604,26.5265 242.437604,27.4315 242.055604,28.1675 C241.789604,28.6815 241.265604,28.9765 240.723604,28.9765 M248.340604,33.7375 C248.013604,33.7375 247.684604,33.6315 247.409604,33.4125 C246.717604,32.8635 245.935604,32.3005 245.083604,31.7355 C244.391604,31.2785 244.202604,30.3475 244.659604,29.6575 C245.115604,28.9655 246.045604,28.7745 246.737604,29.2335 C247.662604,29.8445 248.515604,30.4605 249.274604,31.0625 C249.923604,31.5785 250.031604,32.5215 249.516604,33.1705 C249.220604,33.5435 248.782604,33.7375 248.340604,33.7375 M253.352604,40.9225 C252.592604,40.9225 251.940604,40.3455 251.862604,39.5735 C251.790604,38.8655 251.531604,38.1215 251.092604,37.3645 C250.677604,36.6475 250.921604,35.7295 251.638604,35.3145 C252.354604,34.8995 253.273604,35.1425 253.688604,35.8605 C254.341604,36.9885 254.731604,38.1355 254.846604,39.2705 C254.930604,40.0945 254.330604,40.8305 253.505604,40.9145 C253.454604,40.9205 253.403604,40.9225 253.352604,40.9225 M248.876604,48.1645 C248.408604,48.1645 247.948604,47.9465 247.655604,47.5375 C247.172604,46.8635 247.328604,45.9265 248.002604,45.4445 C248.815604,44.8625 249.511604,44.2725 250.072604,43.6915 C250.649604,43.0945 251.598604,43.0795 252.193604,43.6525 C252.790604,44.2275 252.807604,45.1765 252.232604,45.7735 C251.545604,46.4865 250.709604,47.1965 249.748604,47.8845 C249.483604,48.0735 249.178604,48.1645 248.876604,48.1645 M240.931604,52.3315 C240.340604,52.3315 239.780604,51.9805 239.543604,51.4005 C239.228604,50.6345 239.594604,49.7585 240.361604,49.4435 C241.305604,49.0565 242.205604,48.6615 243.037604,48.2695 C243.785604,47.9195 244.680604,48.2395 245.033604,48.9885 C245.385604,49.7375 245.064604,50.6315 244.314604,50.9845 C243.437604,51.3975 242.490604,51.8125 241.500604,52.2185 C241.313604,52.2955 241.121604,52.3315 240.931604,52.3315 M232.439604,55.3015 C231.796604,55.3015 231.201604,54.8845 231.004604,54.2365 C230.764604,53.4435 231.212604,52.6055 232.004604,52.3655 C232.980604,52.0695 233.921604,51.7705 234.829604,51.4705 C235.615604,51.2115 236.463604,51.6365 236.723604,52.4245 C236.984604,53.2105 236.557604,54.0585 235.770604,54.3185 C234.841604,54.6265 233.877604,54.9325 232.876604,55.2365 C232.730604,55.2805 232.584604,55.3015 232.439604,55.3015 M223.759604,57.6755 C223.086604,57.6755 222.473604,57.2185 222.304604,56.5355 C222.105604,55.7315 222.595604,54.9185 223.400604,54.7185 C224.386604,54.4745 225.348604,54.2295 226.285604,53.9825 C227.086604,53.7675 227.907604,54.2485 228.118604,55.0505 C228.330604,55.8515 227.851604,56.6725 227.050604,56.8835 C226.098604,57.1345 225.123604,57.3835 224.121604,57.6315 C224.000604,57.6615 223.879604,57.6755 223.759604,57.6755 M214.986604,59.6765 C214.293604,59.6765 213.670604,59.1925 213.520604,58.4865 C213.349604,57.6765 213.867604,56.8805 214.677604,56.7085 C215.669604,56.4985 216.641604,56.2885 217.594604,56.0775 C218.404604,55.8935 219.204604,56.4075 219.383604,57.2165 C219.563604,58.0245 219.053604,58.8255 218.245604,59.0055 C217.282604,59.2195 216.299604,59.4315 215.298604,59.6435 C215.194604,59.6655 215.089604,59.6765 214.986604,59.6765 M206.157604,61.4195 C205.448604,61.4195 204.817604,60.9145 204.684604,60.1915 C204.533604,59.3775 205.072604,58.5945 205.886604,58.4445 C206.880604,58.2605 207.859604,58.0755 208.822604,57.8895 C209.629604,57.7325 210.421604,58.2635 210.579604,59.0785 C210.736604,59.8915 210.204604,60.6785 209.390604,60.8355 C208.420604,61.0225 207.433604,61.2095 206.431604,61.3935 C206.339604,61.4115 206.248604,61.4195 206.157604,61.4195 M197.292604,62.9715 C196.572604,62.9715 195.936604,62.4515 195.814604,61.7185 C195.678604,60.9005 196.230604,60.1285 197.047604,59.9925 C198.044604,59.8265 199.028604,59.6615 199.998604,59.4945 C200.820604,59.3575 201.589604,59.9035 201.730604,60.7185 C201.870604,61.5355 201.322604,62.3105 200.505604,62.4515 C199.530604,62.6185 198.542604,62.7855 197.540604,62.9515 C197.457604,62.9655 197.374604,62.9715 197.292604,62.9715 M81.2556043,77.7495 C80.5426043,77.7495 79.9096043,77.2375 79.7806043,76.5105 C79.6366043,75.6945 80.1806043,74.9165 80.9976043,74.7715 C81.9726043,74.5995 82.9616043,74.4275 83.9626043,74.2585 C84.7776043,74.1225 85.5546043,74.6685 85.6926043,75.4845 C85.8326043,76.3015 85.2826043,77.0765 84.4656043,77.2155 C83.4706043,77.3855 82.4886043,77.5545 81.5186043,77.7265 C81.4306043,77.7425 81.3426043,77.7495 81.2556043,77.7495 M72.4136043,79.4225 C71.7136043,79.4225 71.0886043,78.9305 70.9446043,78.2185 C70.7816043,77.4065 71.3066043,76.6155 72.1186043,76.4515 C73.0896043,76.2565 74.0746043,76.0605 75.0736043,75.8675 C75.8876043,75.7105 76.6736043,76.2415 76.8316043,77.0545 C76.9886043,77.8685 76.4566043,78.6555 75.6436043,78.8125 C74.6526043,79.0045 73.6756043,79.1975 72.7126043,79.3925 C72.6116043,79.4125 72.5116043,79.4225 72.4136043,79.4225 M63.6236043,81.3425 C62.9426043,81.3425 62.3276043,80.8775 62.1646043,80.1855 C61.9736043,79.3805 62.4736043,78.5725 63.2806043,78.3825 C64.2426043,78.1555 65.2226043,77.9295 66.2206043,77.7075 C67.0376043,77.5255 67.8316043,78.0365 68.0116043,78.8435 C68.1926043,79.6525 67.6836043,80.4545 66.8756043,80.6355 C65.8886043,80.8555 64.9206043,81.0775 63.9676043,81.3025 C63.8526043,81.3295 63.7366043,81.3425 63.6236043,81.3425 M54.9086043,83.5835 C54.2546043,83.5835 53.6526043,83.1515 53.4656043,82.4915 C53.2406043,81.6935 53.7046043,80.8655 54.5016043,80.6395 C55.4526043,80.3715 56.4256043,80.1055 57.4206043,79.8435 C58.2256043,79.6305 59.0426043,80.1085 59.2546043,80.9095 C59.4656043,81.7115 58.9886043,82.5315 58.1876043,82.7435 C57.2096043,83.0025 56.2536043,83.2615 55.3176043,83.5265 C55.1806043,83.5655 55.0436043,83.5835 54.9086043,83.5835 M46.3246043,86.2715 C45.7056043,86.2715 45.1256043,85.8855 44.9096043,85.2675 C44.6346043,84.4865 45.0466043,83.6305 45.8286043,83.3565 C46.7576043,83.0305 47.7166043,82.7065 48.7046043,82.3865 C49.4966043,82.1355 50.3386043,82.5655 50.5926043,83.3525 C50.8476043,84.1415 50.4166043,84.9875 49.6286043,85.2415 C48.6646043,85.5535 47.7286043,85.8695 46.8206043,86.1865 C46.6566043,86.2445 46.4896043,86.2715 46.3246043,86.2715 M37.9846043,89.6355 C37.4216043,89.6355 36.8806043,89.3175 36.6266043,88.7735 C36.2736043,88.0235 36.5966043,87.1305 37.3456043,86.7775 C38.2376043,86.3595 39.1696043,85.9455 40.1416043,85.5355 C40.9106043,85.2145 41.7846043,85.5735 42.1066043,86.3365 C42.4276043,87.0995 42.0696043,87.9785 41.3056043,88.3015 C40.3726043,88.6935 39.4776043,89.0925 38.6216043,89.4945 C38.4156043,89.5905 38.1986043,89.6355 37.9846043,89.6355 M30.2276043,94.1505 C29.7716043,94.1505 29.3206043,93.9425 29.0256043,93.5495 C28.5296043,92.8855 28.6656043,91.9455 29.3286043,91.4495 C30.1176043,90.8585 30.9876043,90.2685 31.9146043,89.6945 C32.6166043,89.2575 33.5436043,89.4735 33.9786043,90.1785 C34.4156043,90.8835 34.1986043,91.8075 33.4946043,92.2445 C32.6416043,92.7725 31.8446043,93.3135 31.1256043,93.8515 C30.8556043,94.0525 30.5406043,94.1505 30.2276043,94.1505 M24.4346043,100.8635 C24.2376043,100.8635 24.0366043,100.8245 23.8426043,100.7415 C23.0816043,100.4135 22.7306043,99.5315 23.0576043,98.7705 C23.4766043,97.7975 24.0436043,96.8305 24.7396043,95.8975 C25.2356043,95.2325 26.1736043,95.0965 26.8386043,95.5935 C27.5036043,96.0895 27.6386043,97.0295 27.1436043,97.6925 C26.5876043,98.4375 26.1396043,99.1995 25.8136043,99.9565 C25.5696043,100.5245 25.0156043,100.8635 24.4346043,100.8635 M24.6976043,109.5545 C24.1236043,109.5545 23.5756043,109.2235 23.3266043,108.6655 C22.8506043,107.5975 22.5096043,106.5275 22.3146043,105.4855 C22.1626043,104.6715 22.6986043,103.8865 23.5126043,103.7345 C24.3306043,103.5795 25.1116043,104.1185 25.2636043,104.9325 C25.4156043,105.7455 25.6856043,106.5905 26.0666043,107.4445 C26.4036043,108.2005 26.0636043,109.0885 25.3066043,109.4255 C25.1086043,109.5125 24.9016043,109.5545 24.6976043,109.5545 M30.0016043,116.7545 C29.6196043,116.7545 29.2376043,116.6095 28.9446043,116.3185 C28.1766043,115.5565 27.4616043,114.7865 26.8176043,114.0285 C26.2816043,113.3965 26.3586043,112.4505 26.9906043,111.9145 C27.6236043,111.3775 28.5686043,111.4555 29.1046043,112.0875 C29.6926043,112.7795 30.3496043,113.4875 31.0576043,114.1895 C31.6456043,114.7725 31.6496043,115.7225 31.0656043,116.3105 C30.7726043,116.6055 30.3866043,116.7545 30.0016043,116.7545 M36.9056043,122.5085 C36.6006043,122.5085 36.2936043,122.4155 36.0266043,122.2225 C35.1716043,121.6045 34.3576043,120.9915 33.5846043,120.3825 C32.9326043,119.8705 32.8196043,118.9275 33.3326043,118.2765 C33.8436043,117.6245 34.7876043,117.5105 35.4376043,118.0245 C36.1816043,118.6085 36.9646043,119.1985 37.7866043,119.7935 C38.4576043,120.2785 38.6076043,121.2165 38.1216043,121.8875 C37.8286043,122.2935 37.3706043,122.5085 36.9056043,122.5085 M44.4286043,127.4405 C44.1656043,127.4405 43.8986043,127.3715 43.6576043,127.2255 C42.7676043,126.6915 41.9076043,126.1605 41.0746043,125.6335 C40.3746043,125.1895 40.1666043,124.2625 40.6096043,123.5625 C41.0536043,122.8615 41.9826043,122.6565 42.6796043,123.0975 C43.4936043,123.6135 44.3346043,124.1335 45.2026043,124.6555 C45.9126043,125.0825 46.1416043,126.0035 45.7146043,126.7135 C45.4336043,127.1815 44.9376043,127.4405 44.4286043,127.4405 M52.2716043,131.8505 C52.0346043,131.8505 51.7946043,131.7955 51.5706043,131.6765 C50.6616043,131.1945 49.7746043,130.7165 48.9096043,130.2405 C48.1836043,129.8405 47.9196043,128.9275 48.3186043,128.2025 C48.7186043,127.4755 49.6336043,127.2155 50.3566043,127.6115 C51.2086043,128.0815 52.0816043,128.5525 52.9746043,129.0255 C53.7076043,129.4135 53.9856043,130.3205 53.5976043,131.0525 C53.3296043,131.5605 52.8086043,131.8505 52.2716043,131.8505 M60.3096043,135.8985 C60.0916043,135.8985 59.8706043,135.8515 59.6606043,135.7505 C58.7396043,135.3075 57.8366043,134.8665 56.9496043,134.4275 C56.2066043,134.0595 55.9026043,133.1605 56.2696043,132.4185 C56.6376043,131.6755 57.5396043,131.3735 58.2796043,131.7385 C59.1566043,132.1735 60.0496043,132.6085 60.9616043,133.0475 C61.7076043,133.4055 62.0216043,134.3025 61.6626043,135.0495 C61.4046043,135.5855 60.8686043,135.8985 60.3096043,135.8985 M68.4766043,139.6785 C68.2726043,139.6785 68.0646043,139.6365 67.8666043,139.5495 C66.9366043,139.1345 66.0216043,138.7205 65.1206043,138.3085 C64.3666043,137.9645 64.0346043,137.0745 64.3796043,136.3215 C64.7236043,135.5675 65.6136043,135.2355 66.3666043,135.5805 C67.2596043,135.9885 68.1676043,136.3975 69.0886043,136.8085 C69.8456043,137.1465 70.1846043,138.0335 69.8476043,138.7905 C69.5986043,139.3475 69.0506043,139.6785 68.4766043,139.6785" id="Fill-1" fill="#A3B1BF"></path>
                <path d="M222.3067,22.7018 C221.9847,22.7018 221.6607,22.5978 221.3867,22.3858 C220.6917,21.8448 219.9057,21.3028 219.0517,20.7758 C218.3467,20.3418 218.1277,19.4168 218.5637,18.7118 C218.9987,18.0068 219.9227,17.7888 220.6277,18.2228 C221.5737,18.8058 222.4487,19.4108 223.2287,20.0178 C223.8827,20.5268 223.9997,21.4698 223.4917,22.1228 C223.1957,22.5028 222.7527,22.7018 222.3067,22.7018 M227.2277,29.9608 C226.4877,29.9608 225.8437,29.4138 225.7437,28.6598 C225.6387,27.8828 225.3777,27.1028 224.9687,26.3438 C224.5757,25.6138 224.8477,24.7048 225.5777,24.3108 C226.3077,23.9178 227.2147,24.1888 227.6097,24.9198 C228.1917,25.9988 228.5637,27.1238 228.7157,28.2618 C228.8267,29.0828 228.2497,29.8378 227.4287,29.9468 C227.3617,29.9568 227.2937,29.9608 227.2277,29.9608 M224.2637,38.1518 C223.9317,38.1518 223.5977,38.0428 223.3207,37.8168 C222.6767,37.2958 222.5777,36.3508 223.0997,35.7078 C223.7177,34.9448 224.2367,34.1878 224.6417,33.4578 C225.0447,32.7328 225.9587,32.4728 226.6817,32.8748 C227.4057,33.2768 227.6667,34.1898 227.2647,34.9148 C226.7747,35.7968 226.1577,36.6988 225.4297,37.5968 C225.1337,37.9628 224.7007,38.1518 224.2637,38.1518 M217.6527,44.2068 C217.1927,44.2068 216.7387,43.9958 216.4447,43.5968 C215.9527,42.9298 216.0947,41.9908 216.7617,41.4998 C217.5747,40.8998 218.3457,40.2978 219.0547,39.7078 C219.6927,39.1768 220.6367,39.2638 221.1667,39.9018 C221.6967,40.5388 221.6107,41.4838 220.9727,42.0138 C220.2187,42.6408 219.4007,43.2808 218.5407,43.9138 C218.2737,44.1118 217.9617,44.2068 217.6527,44.2068 M210.0987,49.0878 C209.5807,49.0878 209.0777,48.8188 208.7987,48.3388 C208.3847,47.6208 208.6297,46.7038 209.3467,46.2888 C210.2277,45.7798 211.0737,45.2748 211.8837,44.7728 C212.5877,44.3398 213.5127,44.5558 213.9497,45.2608 C214.3847,45.9658 214.1657,46.8898 213.4617,47.3258 C212.6257,47.8418 211.7547,48.3618 210.8487,48.8868 C210.6127,49.0228 210.3537,49.0878 210.0987,49.0878 M202.1597,53.3188 C201.6077,53.3188 201.0767,53.0138 200.8147,52.4858 C200.4467,51.7438 200.7487,50.8438 201.4917,50.4748 C202.4007,50.0238 203.2847,49.5758 204.1437,49.1308 C204.8777,48.7488 205.7847,49.0358 206.1657,49.7718 C206.5467,50.5088 206.2597,51.4138 205.5247,51.7948 C204.6497,52.2478 203.7497,52.7038 202.8257,53.1628 C202.6107,53.2688 202.3837,53.3188 202.1597,53.3188 M194.0107,57.1358 C193.4357,57.1358 192.8867,56.8038 192.6387,56.2438 C192.3027,55.4868 192.6437,54.5998 193.4017,54.2638 C194.3267,53.8538 195.2317,53.4438 196.1177,53.0378 C196.8737,52.6938 197.7607,53.0228 198.1067,53.7748 C198.4527,54.5278 198.1217,55.4188 197.3697,55.7648 C196.4717,56.1768 195.5547,56.5908 194.6187,57.0068 C194.4207,57.0948 194.2137,57.1358 194.0107,57.1358 M83.8597,96.3798 C83.2797,96.3798 82.7267,96.0418 82.4817,95.4738 C82.1537,94.7148 82.5027,93.8318 83.2637,93.5028 C84.1697,93.1108 85.0947,92.7178 86.0377,92.3218 C86.8017,91.9988 87.6817,92.3608 88.0007,93.1248 C88.3227,93.8888 87.9617,94.7668 87.1987,95.0878 C86.2647,95.4788 85.3497,95.8688 84.4527,96.2568 C84.2597,96.3408 84.0577,96.3798 83.8597,96.3798 M75.6767,100.1248 C75.1207,100.1248 74.5867,99.8148 74.3277,99.2818 C73.9647,98.5368 74.2747,97.6398 75.0187,97.2758 C75.9047,96.8448 76.8157,96.4108 77.7497,95.9758 C78.5017,95.6258 79.3947,95.9508 79.7437,96.7018 C80.0937,97.4528 79.7677,98.3458 79.0177,98.6948 C78.0987,99.1238 77.2027,99.5498 76.3327,99.9728 C76.1207,100.0758 75.8977,100.1248 75.6767,100.1248 M67.7137,104.3128 C67.1947,104.3128 66.6897,104.0428 66.4117,103.5588 C65.9997,102.8418 66.2477,101.9248 66.9667,101.5128 C67.8187,101.0228 68.7027,100.5308 69.6207,100.0348 C70.3477,99.6418 71.2597,99.9128 71.6547,100.6418 C72.0477,101.3718 71.7757,102.2818 71.0467,102.6758 C70.1527,103.1578 69.2887,103.6388 68.4587,104.1138 C68.2237,104.2498 67.9677,104.3128 67.7137,104.3128 M60.1757,109.2128 C59.7207,109.2128 59.2717,109.0068 58.9767,108.6148 C58.4787,107.9538 58.6107,107.0128 59.2727,106.5148 C60.0457,105.9318 60.8887,105.3318 61.7777,104.7308 C62.4647,104.2678 63.3967,104.4478 63.8607,105.1348 C64.3247,105.8208 64.1437,106.7538 63.4567,107.2178 C62.6107,107.7888 61.8097,108.3588 61.0777,108.9108 C60.8067,109.1138 60.4907,109.2128 60.1757,109.2128 M53.7407,115.4438 C53.4377,115.4438 53.1317,115.3528 52.8677,115.1628 C52.1947,114.6808 52.0387,113.7428 52.5227,113.0698 C53.1017,112.2628 53.7927,111.4358 54.5777,110.6138 C55.1497,110.0148 56.0987,109.9928 56.6987,110.5648 C57.2967,111.1378 57.3197,112.0868 56.7467,112.6858 C56.0597,113.4068 55.4577,114.1238 54.9597,114.8178 C54.6667,115.2258 54.2067,115.4438 53.7407,115.4438 M51.8767,123.8688 C51.2427,123.8688 50.6537,123.4648 50.4497,122.8278 C50.1517,121.9018 49.9997,120.9488 49.9997,119.9958 C49.9987,119.7708 50.0077,119.5368 50.0257,119.3018 C50.0877,118.4738 50.8237,117.8558 51.6337,117.9178 C52.4597,117.9798 53.0787,118.6998 53.0177,119.5258 C53.0057,119.6808 52.9987,119.8358 52.9997,119.9878 C52.9997,120.6368 53.1027,121.2808 53.3047,121.9098 C53.5587,122.6978 53.1247,123.5428 52.3357,123.7968 C52.1837,123.8458 52.0287,123.8688 51.8767,123.8688 M57.5837,130.6208 C57.2857,130.6208 56.9837,130.5318 56.7207,130.3468 C55.7967,129.6958 54.9587,129.0238 54.2287,128.3498 C53.6197,127.7878 53.5817,126.8398 54.1437,126.2298 C54.7067,125.6218 55.6557,125.5858 56.2637,126.1448 C56.8977,126.7298 57.6327,127.3188 58.4497,127.8948 C59.1257,128.3718 59.2877,129.3078 58.8107,129.9848 C58.5187,130.3988 58.0547,130.6208 57.5837,130.6208 M65.4817,134.8998 C65.2827,134.8998 65.0787,134.8598 64.8837,134.7748 C63.9107,134.3518 62.9727,133.9178 62.0967,133.4848 C61.3537,133.1188 61.0487,132.2198 61.4157,131.4758 C61.7827,130.7328 62.6807,130.4298 63.4247,130.7958 C64.2577,131.2068 65.1517,131.6198 66.0807,132.0248 C66.8407,132.3548 67.1887,133.2388 66.8577,133.9988 C66.6127,134.5628 66.0607,134.8998 65.4817,134.8998" id="Fill-1" fill="#A3B1BF" fill-rule="nonzero" opacity="0.253859747"></path>
            </g>
        </g>
    </g>
</svg>