<?xml version="1.0" encoding="UTF-8"?>
<svg width="248px" height="181px" viewBox="0 0 248 181" version="1.1" xmlns="http://www.w3.org/2000/svg" xmlns:xlink="http://www.w3.org/1999/xlink">
    <title>无访问权限</title>
    <g id="框架设计-过程版" stroke="none" stroke-width="1" fill="none" fill-rule="evenodd">
        <g id="缺省图" transform="translate(-1585.000000, -393.000000)">
            <g id="无访问权限" transform="translate(1585.000000, 393.000000)">
                <path d="M78.3116883,84.1558442 C79.2257554,84.1558442 80.1275693,84.1033815 81.0142829,84.001303 C80.7726671,85.9671455 80.6493506,87.9691717 80.6493506,90 C80.6493506,94.9506291 81.3821676,99.7300997 82.7452437,104.235854 C80.8542522,104.825472 79.4805195,106.601771 79.4805195,108.701299 C79.4805195,111.283409 81.5583424,113.376623 84.1214668,113.376623 L86.5621089,113.377079 C88.3934807,116.752544 90.6091219,119.88918 93.150342,122.728296 L63.4461413,122.727273 C60.8528164,122.727273 58.7505112,120.634059 58.7505112,118.051948 C58.7505112,115.469838 60.8528164,113.376623 63.4461413,113.376623 L65.0113513,113.376623 C67.6046762,113.376623 69.7069814,111.283409 69.7069814,108.701299 C69.7069814,106.119188 67.6046762,104.025974 65.0113513,104.025974 L29.2410846,104.025974 C26.6477598,104.025974 24.5454545,101.93276 24.5454545,99.3506494 C24.5454545,96.7685388 26.6477598,94.6753247 29.2410846,94.6753247 L57.0871745,94.6753247 C59.6804994,94.6753247 61.7828046,92.5821105 61.7828046,90 C61.7828046,87.4178895 59.6804994,85.3246753 57.0871745,85.3246753 L53.0269595,85.3246753 C50.4336346,85.3246753 48.3313294,83.2314612 48.3313294,80.6493506 C48.3313294,78.0672401 50.4336346,75.974026 53.0269595,75.974026 L60.5468819,75.9745619 C64.8343409,80.9822902 71.202403,84.1558442 78.3116883,84.1558442 Z M192.836837,113.376623 C195.430162,113.376623 197.532468,115.469838 197.532468,118.051948 C197.532468,120.634059 195.430162,122.727273 192.836837,122.727273 L166.330177,122.728296 C168.871398,119.88918 171.087039,116.752544 172.918411,113.377079 L192.836837,113.376623 Z M202.08256,93.5064935 C204.088307,93.5064935 205.714286,95.5997077 205.714286,98.1818182 C205.714286,100.763929 204.088307,102.857143 202.08256,102.857143 L177.130048,102.858077 C177.945377,99.8458634 178.481173,96.7187541 178.707879,93.5063076 L202.08256,93.5064935 Z M189.706417,75.974026 C192.299742,75.974026 194.402047,78.0672401 194.402047,80.6493506 C194.402047,83.2314612 192.299742,85.3246753 189.706417,85.3246753 L178.611327,85.3235989 C178.30734,82.1067998 177.692946,78.9803701 176.79842,75.9745852 L189.706417,75.974026 Z M54.9350649,60.7792208 C54.9350649,62.797306 55.1907898,64.7556635 55.6716028,66.6236564 L44.6636209,66.6233766 C42.070296,66.6233766 39.9679907,64.5301625 39.9679907,61.9480519 C39.9679907,59.3659414 42.070296,57.2727273 44.6636209,57.2727273 L55.1962327,57.2731726 C55.0242232,58.4168266 54.9350649,59.5876117 54.9350649,60.7792208 Z M177.184737,57.2727273 C179.778062,57.2727273 181.880367,59.3659414 181.880367,61.9480519 C181.880367,64.5301625 179.778062,66.6233766 177.184737,66.6233766 L172.918411,66.6229208 C171.087173,63.247704 168.871723,60.1112811 166.330738,57.2723298 L177.184737,57.2727273 Z" id="Combined-Shape" fill="#A3B1BF" fill-rule="nonzero" opacity="0.14969308"></path>
                <g id="Group-3" transform="translate(49.259740, 12.857143)" fill="#A3B1BF" fill-rule="nonzero" opacity="0.253859747">
                    <path d="M121.560494,3.6997013 C121.509065,3.6997013 121.457636,3.69736364 121.405039,3.69268831 C120.295818,3.59567532 119.156208,3.53372727 118.020104,3.50801299 C117.052312,3.48580519 116.28439,2.68398701 116.306597,1.71619481 C116.327636,0.748402597 117.10374,-0.0499090909 118.098416,0.00268831169 C119.310494,0.0295714286 120.526078,0.0961948052 121.711273,0.200220779 C122.675558,0.284376623 123.388545,1.13528571 123.30439,2.09957143 C123.224909,3.01242857 122.459325,3.6997013 121.560494,3.6997013 M131.855558,5.72762338 C131.679065,5.72762338 131.499065,5.70074026 131.322571,5.64463636 C130.269455,5.30801299 129.177766,5.00762338 128.076727,4.74814286 C127.134649,4.52723377 126.549065,3.58398701 126.769974,2.64074026 C126.990883,1.69866234 127.935299,1.11658442 128.877377,1.33515584 C130.067247,1.61450649 131.248935,1.94061039 132.388545,2.30294805 C133.310753,2.59749351 133.819195,3.58398701 133.525818,4.50619481 C133.287377,5.25190909 132.597766,5.72762338 131.855558,5.72762338 M141.340623,10.1890519 C141.012182,10.1890519 140.679065,10.0967143 140.383351,9.90268831 C139.463481,9.30190909 138.495688,8.73502597 137.505688,8.21606494 C136.647766,7.76606494 136.316987,6.7071039 136.765818,5.84918182 C137.215818,4.99242857 138.27361,4.65814286 139.132701,5.11048052 C140.222052,5.68087013 141.288026,6.30619481 142.301403,6.96775325 C143.111403,7.4984026 143.339325,8.58424675 142.809844,9.39541558 C142.473221,9.9097013 141.912182,10.1890519 141.340623,10.1890519 M149.091143,17.2312597 C148.569844,17.2312597 148.05439,16.9986623 147.708416,16.5568442 C147.042182,15.7047662 146.309325,14.8713896 145.527377,14.0812597 C144.847117,13.3928182 144.852961,12.2824286 145.541403,11.6021688 C146.228675,10.9207403 147.339065,10.9265844 148.020494,11.615026 C148.898286,12.5021688 149.723481,13.4395714 150.472701,14.3991818 C151.068805,15.1624286 150.932052,16.2646364 150.168805,16.8595714 C149.848545,17.1097013 149.468675,17.2312597 149.091143,17.2312597 M153.786338,26.5585325 C153.007896,26.5585325 152.296078,26.0360649 152.090364,25.2471039 C151.822701,24.2173636 151.468545,23.1829481 151.041922,22.1754156 C150.663221,21.2835974 151.079325,20.255026 151.971143,19.8763247 C152.861792,19.4987922 153.891532,19.9148961 154.269065,20.8067143 C154.763481,21.9708701 155.172571,23.1677532 155.483481,24.3622987 C155.727766,25.2985325 155.166727,26.256974 154.229325,26.5012597 C154.080883,26.5398312 153.932442,26.5585325 153.786338,26.5585325 M153.962831,36.9681429 C153.829584,36.9681429 153.695169,36.9529481 153.559584,36.9213896 C152.617506,36.6993117 152.033091,35.7560649 152.255169,34.8128182 C152.498286,33.7760649 152.657247,32.7089221 152.725039,31.6394416 C152.786987,30.673987 153.618026,29.9411299 154.586987,30.0007403 C155.55361,30.0626883 156.286468,30.8972338 156.224519,31.8626883 C156.14387,33.1273636 155.956857,34.3897013 155.668156,35.616974 C155.477636,36.4246364 154.757636,36.9681429 153.962831,36.9681429 M149.195169,46.2311299 C148.793091,46.2311299 148.389844,46.0943766 148.059065,45.8138571 C147.321532,45.1861948 147.232701,44.0793117 147.859195,43.3417792 C148.569844,42.5072338 149.215039,41.6271039 149.776078,40.7271039 C150.288026,39.9042468 151.369195,39.6541169 152.190883,40.1660649 C153.012571,40.678013 153.265039,41.7591818 152.751922,42.5808701 C152.099714,43.626974 151.352831,44.6473636 150.531143,45.613987 C150.184,46.0219091 149.690753,46.2311299 149.195169,46.2311299 M141.053091,52.7964545 C140.440623,52.7964545 139.845688,52.475026 139.52426,51.9046364 C139.048545,51.0607403 139.346597,49.9912597 140.189325,49.5155455 C141.174649,48.9603506 142.120234,48.3630779 142.999195,47.7412597 C143.790494,47.1813896 144.884519,47.3684026 145.443221,48.1585325 C146.003091,48.9486623 145.816078,50.0426883 145.025948,50.6025584 C144.048805,51.2945065 143.001532,51.9560649 141.912182,52.5708701 C141.639844,52.723987 141.34413,52.7964545 141.053091,52.7964545 M131.336597,56.7611299 C130.572182,56.7611299 129.870883,56.2585325 129.651143,55.4871039 C129.385818,54.5567143 129.925818,53.5865844 130.857377,53.3212597 C131.965429,53.0056753 133.048935,52.6573636 134.078675,52.2856753 C134.991532,51.9572338 135.99439,52.4294416 136.322831,53.339961 C136.651273,54.2504805 136.180234,55.2556753 135.269714,55.5841169 C134.164,55.9826883 133.002182,56.3555455 131.816987,56.6933377 C131.656857,56.7389221 131.495558,56.7611299 131.336597,56.7611299 M27.791013,73.1002208 C27.1212727,73.1002208 26.4819221,72.7145065 26.1897143,72.0646364 C25.7934805,71.181 26.1885455,70.1442468 27.0721818,69.7468442 C28.144,69.2664545 29.2590649,68.8000909 30.386987,68.3606104 C31.2904935,68.009961 32.305039,68.4564545 32.6556883,69.3587922 C33.0075065,70.2611299 32.5598442,71.278013 31.6575065,71.6286623 C30.5868571,72.0459351 29.5255584,72.4900909 28.5075065,72.9471039 C28.2749091,73.0511299 28.0306234,73.1002208 27.791013,73.1002208 M18.6297143,78.2068442 C18.0721818,78.2068442 17.5228312,77.9403506 17.1838701,77.4459351 C16.6345195,76.6476234 16.8378961,75.5559351 17.6362078,75.0077532 C18.618026,74.3333377 19.6407532,73.6787922 20.6751688,73.0628182 C21.5073766,72.5660649 22.5838701,72.8395714 23.0794545,73.6717792 C23.5738701,74.503987 23.3027013,75.5793117 22.4704935,76.0748961 C21.4991948,76.6534675 20.5407532,77.2659351 19.6208831,77.8982727 C19.3181558,78.1063247 18.9721818,78.2068442 18.6297143,78.2068442 M10.6524416,85.0129481 C10.2293247,85.0129481 9.8027013,84.8598312 9.46607792,84.5500909 C8.75309091,83.8943766 8.70750649,82.7851558 9.36322078,82.0721688 C9.72438961,81.6806104 10.0972468,81.2937273 10.4817922,80.9126883 C10.968026,80.4311299 11.4624416,79.9624286 11.9638701,79.5030779 C12.6791948,78.8508701 13.7884156,78.9011299 14.4417922,79.6164545 C15.094,80.3317792 15.0437403,81.441 14.3284156,82.0932078 C13.8608831,82.5198312 13.4003636,82.9581429 12.948026,83.4058052 C12.6020519,83.7471039 12.2677662,84.0942468 11.944,84.4460649 C11.598026,84.8224286 11.1258182,85.0129481 10.6524416,85.0129481 M4.96607792,93.7955455 C4.73932468,93.7955455 4.50906494,93.7511299 4.28815584,93.6587922 C3.39516883,93.2847662 2.97438961,92.2573636 3.34958442,91.3643766 C3.82296104,90.2329481 4.37464935,89.112039 4.98945455,88.032039 C5.46867532,87.1916494 6.54049351,86.8971039 7.37971429,87.3751558 C8.22244156,87.8543766 8.51581818,88.925026 8.03776623,89.7665844 C7.49192208,90.725026 7.00335065,91.7173636 6.58257143,92.7190519 C6.30205195,93.3911299 5.65101299,93.7955455 4.96607792,93.7955455 M2.75464935,104.018143 C2.73594805,104.018143 2.71724675,104.018143 2.69854545,104.018143 C1.73075325,103.987753 0.971012987,103.177753 1.00023377,102.209961 C1.03997403,100.971 1.15335065,99.7261948 1.33919481,98.5106104 C1.4852987,97.5533377 2.37945455,96.8952857 3.33672727,97.0413896 C4.29283117,97.1874935 4.95088312,98.0828182 4.80477922,99.0389221 C4.64114286,100.116584 4.53945455,101.22113 4.50672727,102.319831 C4.47633766,103.268922 3.6978961,104.018143 2.75464935,104.018143 M4.20750649,114.384506 C3.46062338,114.384506 2.76750649,113.902948 2.53490909,113.152558 C2.1678961,111.973208 1.86049351,110.770481 1.62322078,109.578273 C1.43503896,108.628013 2.05101299,107.704636 3.0001039,107.516455 C3.95737662,107.33061 4.87374026,107.945416 5.06309091,108.893338 C5.27581818,109.966325 5.55166234,111.047494 5.88244156,112.109961 C6.16997403,113.034506 5.65335065,114.017494 4.72880519,114.305026 C4.55581818,114.358792 4.38049351,114.384506 4.20750649,114.384506 M8.72503896,123.842688 C8.15348052,123.842688 7.59361039,123.564506 7.25698701,123.050221 C6.58374026,122.022818 5.95374026,120.966195 5.38568831,119.908403 C4.92750649,119.055156 5.24776623,117.992688 6.10101299,117.534506 C6.95542857,117.073987 8.01672727,117.395416 8.47490909,118.248662 C8.99503896,119.217623 9.57244156,120.186584 10.1895844,121.128662 C10.7202338,121.938662 10.4946494,123.025675 9.68464935,123.556325 C9.38776623,123.750351 9.05464935,123.842688 8.72503896,123.842688 M15.461013,131.886584 C15.025039,131.886584 14.5878961,131.725286 14.2489351,131.400351 C13.369974,130.558792 12.5178961,129.684506 11.7172468,128.80087 C11.0673766,128.083208 11.1223117,126.973987 11.8388052,126.324117 C12.5564675,125.674247 13.6656883,125.728013 14.3155584,126.445675 C15.0612727,127.268532 15.8537403,128.083208 16.6730909,128.867494 C17.3732208,129.537234 17.3965974,130.646455 16.728026,131.345416 C16.3832208,131.706584 15.9227013,131.886584 15.461013,131.886584 M23.7036104,138.39113 C23.3763377,138.39113 23.0432208,138.298792 22.7475065,138.105935 C21.7341299,137.445545 20.7371169,136.752429 19.7845195,136.049961 C19.0060779,135.474896 18.8412727,134.376195 19.4163377,133.597753 C19.9914026,132.818143 21.0901039,132.653338 21.8685455,133.229571 C22.7662078,133.892299 23.7059481,134.544506 24.6632208,135.168662 C25.4743896,135.698143 25.7034805,136.783987 25.174,137.595156 C24.8385455,138.11061 24.2775065,138.39113 23.7036104,138.39113" id="Fill-1"></path>
                </g>
                <g id="Group-2" transform="translate(92.337662, 157.792208)">
                    <polygon id="Rectangle-Copy-5" fill="#A3B1BF" fill-rule="nonzero" opacity="0.248516555" points="8.02331265 0 63.2753886 0 71.2987013 22.2077922 0 22.2077922"></polygon>
                    <g id="Group-7" transform="translate(36.239874, 11.496967) rotate(90.000000) translate(-36.239874, -11.496967) translate(28.642471, -21.230306)" stroke="#A3B1BF">
                        <path d="" id="Combined-Shape"></path>
                    </g>
                </g>
                <polygon id="Rectangle" fill="#A3B1BF" fill-rule="nonzero" opacity="0.352446057" points="80.3386608 149.61039 124.206794 149.61039 132.077922 171.818182 72.4675325 171.818182"></polygon>
                <path d="M88.220227,160.323502 L88.239806,160.342993 C88.8269097,160.927459 88.8290478,161.877204 88.2445816,162.464308 C88.2429933,162.465903 88.2414014,162.467495 88.239806,162.469084 L86.4464687,164.254039 L88.239806,166.039131 C88.8269097,166.623597 88.8290478,167.573342 88.2445816,168.160446 C88.2429933,168.162041 88.2414014,168.163633 88.239806,168.165222 L88.220227,168.184713 C87.6349916,168.767319 86.6889231,168.767319 86.1036877,168.184713 L84.3004687,166.389039 L82.4983839,168.184713 C81.9131485,168.767319 80.96708,168.767319 80.3818446,168.184713 L80.3622657,168.165222 C79.775162,167.580755 79.7730238,166.63101 80.35749,166.043907 L80.3622657,166.039131 L82.1544687,164.254039 L80.3622657,162.469084 C79.775162,161.884617 79.7730238,160.934872 80.35749,160.347769 C80.3590783,160.346173 80.3606702,160.344581 80.3622657,160.342993 L80.3818446,160.323502 C80.96708,159.740896 81.9131485,159.740896 82.4983839,160.323502 L84.3004687,162.118039 L86.1036877,160.323502 C86.6889231,159.740896 87.6349916,159.740896 88.220227,160.323502 Z" id="Combined-Shape-Copy-7" fill="#A3B1BF" fill-rule="nonzero" transform="translate(84.301036, 164.254107) rotate(45.000000) translate(-84.301036, -164.254107) "></path>
                <path d="M78.3116883,37.4025974 C87.8137772,37.4025974 95.9917218,43.0719333 99.6474873,51.2125702 L100.142079,50.8319764 C108.371215,44.6037186 118.624274,40.9090909 129.74026,40.9090909 C156.85242,40.9090909 178.831169,62.8878396 178.831169,90 C178.831169,115.944878 158.704218,137.188856 133.212215,138.970032 L129.74026,142.597403 L126.291311,138.971634 C100.788412,137.201636 80.6493506,115.952683 80.6493506,90 C80.6493506,87.9170429 80.7790791,85.8643855 81.0308973,83.8496667 L81.0122826,84.0004919 L81.0122826,84.0004919 C80.1268899,84.103421 79.2254112,84.1558442 78.3116883,84.1558442 C65.4011357,84.1558442 54.9350649,73.6897734 54.9350649,60.7792208 C54.9350649,47.8686682 65.4011357,37.4025974 78.3116883,37.4025974 Z M129.74026,44.438243 C104.564682,44.438243 84.1558442,64.847081 84.1558442,90.0226586 C84.1558442,115.198236 104.564682,135.607074 129.74026,135.607074 C154.915837,135.607074 175.324675,115.198236 175.324675,90.0226586 C175.324675,64.847081 154.915837,44.438243 129.74026,44.438243 Z M78.3116883,40.9090909 C67.3377186,40.9090909 58.4415584,49.8052511 58.4415584,60.7792208 C58.4415584,71.7531905 67.3377186,80.6493506 78.3116883,80.6493506 C79.4292657,80.6493506 80.5252938,80.5570871 81.5925711,80.3797614 L81.726664,79.7235306 C83.9195823,69.4278073 89.3402496,60.3265842 96.8789843,53.5295428 L96.8340904,53.5700697 L96.8340904,53.5700697 C93.9481063,46.1605899 86.7431739,40.9090909 78.3116883,40.9090909 Z" id="Combined-Shape" fill="#A3B1BF" fill-rule="nonzero"></path>
                <path d="M78.3116883,40.9090909 C86.7431777,40.9090909 93.9481127,46.1605946 96.8340556,53.5711643 C89.1590278,60.5074659 83.6871159,69.8347318 81.5918966,80.3782296 C80.5257556,80.5570482 79.4295012,80.6493506 78.3116883,80.6493506 C67.3377186,80.6493506 58.4415584,71.7531905 58.4415584,60.7792208 C58.4415584,49.8052511 67.3377186,40.9090909 78.3116883,40.9090909 Z" id="Combined-Shape" fill="#A3B1BF" fill-rule="nonzero" opacity="0.149972098"></path>
                <path d="M129.74026,44.4155844 C154.915837,44.4155844 175.324675,64.8244224 175.324675,90 C175.324675,115.175578 154.915837,135.584416 129.74026,135.584416 C104.564682,135.584416 84.1558442,115.175578 84.1558442,90 C84.1558442,64.8244224 104.564682,44.4155844 129.74026,44.4155844 Z M129.74026,47.9220779 C106.501265,47.9220779 87.6623377,66.7610053 87.6623377,90 C87.6623377,113.238995 106.501265,132.077922 129.74026,132.077922 C152.979254,132.077922 171.818182,113.238995 171.818182,90 C171.818182,66.7610053 152.979254,47.9220779 129.74026,47.9220779 Z" id="Combined-Shape" fill="#A3B1BF" fill-rule="nonzero" opacity="0.248070126"></path>
                <g id="Group" transform="translate(105.194805, 61.948052)" fill="#A3B1BF" fill-rule="nonzero">
                    <path d="M24.034091,3.04337172 C31.1612312,3.04337172 37.1906888,7.73901011 39.1924487,14.2028275 L39.8863636,14.2024014 L39.8863636,24.3469738 L34.7727273,24.3469738 L34.7727273,14.2024014 L35.1425456,14.2022552 C33.3114756,9.88006385 29.027229,6.84758638 24.034091,6.84758638 C19.040953,6.84758638 14.7567065,9.88006385 12.9256364,14.2022552 L14.3181818,14.2024014 L14.3181818,24.3469738 L8.18181818,24.3469738 L8.18181818,14.2024014 L8.87573328,14.2028275 C10.8774932,7.73901011 16.9069508,3.04337172 24.034091,3.04337172 Z" id="Combined-Shape-Copy-5" opacity="0.251427641"></path>
                    <path d="M24.0340909,1.5 C28.4787082,1.5 32.5109633,3.25256693 35.4652513,6.10031989 C38.3239335,8.85591467 40.1733371,12.6371723 40.4067451,16.8459556 L40.4246768,17.2682369 L40.4333478,22.8027147 L45.0909091,22.8036021 C45.781265,22.8036021 46.406265,23.0834241 46.858676,23.5358351 C47.265846,23.943005 47.5332188,24.489972 47.5826217,25.0985632 L47.5909091,25.3036021 L47.5909091,37.7662338 C47.5909091,41.7702982 45.9679413,45.3952982 43.3439574,48.0192821 C40.8074397,50.5557999 37.335528,52.1569237 33.490029,52.2608469 L33.0909091,52.2662338 L16,52.2662338 C11.9959356,52.2662338 8.37093556,50.643266 5.74695167,48.0192821 C3.21043391,45.4827643 1.60931009,42.0108526 1.50538686,38.1653536 L1.5,37.7662338 L1.5,25.3036021 C1.5,24.6132461 1.77982203,23.9882461 2.23223305,23.5358351 C2.63940296,23.1286652 3.18636995,22.8612924 3.79526935,22.8118894 L4.00042279,22.803602 L7.6358656,22.8025773 L7.63636164,17.2681019 C7.76924635,12.8900082 9.64749927,8.94728091 12.6025903,6.0998339 C15.5576899,3.25237871 19.5897233,1.5 24.0340909,1.5 Z M26.883799,30.9626317 L20.8583138,30.9902718 L20.6750483,31.025435 C20.0138855,31.1767308 19.4739016,31.571604 19.1296316,32.1299967 C18.827387,32.6202258 18.6693073,33.2523876 18.7842446,33.975734 L18.7842446,33.975734 L20.5528983,41.4317294 L20.6201581,41.6766291 C20.7962998,42.2396311 21.1051429,42.7419042 21.510701,43.1474623 C21.9741959,43.6109573 22.5640126,43.9481306 23.2264339,44.1052651 C24.1727199,44.3297357 25.1198058,44.1610751 25.9073482,43.6755257 C26.6510417,43.2170108 27.2607602,42.4684486 27.5533783,41.4721307 L27.5533783,41.4721307 L29.3752607,33.6720398 L29.3837379,33.4803083 C29.3885592,32.7829485 29.1078352,32.151134 28.6515659,31.6948648 C28.1991549,31.2424537 27.5741549,30.9626317 26.883799,30.9626317 L26.883799,30.9626317 Z M24.0340909,1.54337172 C19.6289214,1.54337172 15.6317806,3.27502501 12.6941677,6.08840571 C9.73528842,8.92215351 7.85150654,12.8531756 7.70454893,17.2198341 L7.70454893,17.2198341 L7.70379833,22.803 L13.7717311,22.803 L13.7727213,17.2794482 L13.7938369,16.9437898 C13.9976433,14.3818365 15.1604232,12.0878061 16.9244009,10.4127369 C18.7684984,8.66158617 21.2698789,7.58674345 24.0240505,7.58674345 C26.7776729,7.58674345 29.2785284,8.66119145 31.1248601,10.4114729 C32.9693833,12.1600399 34.1610594,14.5832019 34.2954505,17.2817382 L34.2954505,17.2817382 L34.2948319,22.803 L40.3659747,22.803 L40.3549109,17.2185026 L40.3356942,16.7974199 C40.0897064,12.6006269 38.2357393,8.83151834 35.3741123,6.08944405 C32.4375163,3.27553278 28.4398895,1.54337172 24.0340909,1.54337172 Z M24.0240505,7.63011517 C21.3196709,7.63011517 18.8618803,8.67619537 17.037426,10.3814132 C15.186889,12.111009 13.9883645,14.5186583 13.8409187,17.2028025 L13.8409187,17.2028025 L13.8396639,22.803 L34.2360993,22.803 L34.2022094,17.1994101 L34.1785227,16.8655792 C33.9554098,14.3176933 32.7825476,12.0390632 31.010996,10.3823091 C29.1870738,8.67657794 26.7289127,7.63011517 24.0240505,7.63011517 Z" id="Combined-Shape" stroke="#A3B1BF" stroke-width="3"></path>
                </g>
                <path d="M41.6917555,96.886002 L41.7113344,96.905493 C42.2984381,97.4899592 42.3005763,98.4397042 41.7161101,99.026808 C41.7145218,99.0284034 41.7129299,99.0299953 41.7113344,99.0315836 L39.9179972,100.816539 L41.7113344,102.601631 C42.2984381,103.186097 42.3005763,104.135842 41.7161101,104.722946 C41.7145218,104.724541 41.7129299,104.726133 41.7113344,104.727722 L41.6917555,104.747213 C41.1065201,105.329819 40.1604516,105.329819 39.5752162,104.747213 L37.7719972,102.951539 L35.9699124,104.747213 C35.384677,105.329819 34.4386085,105.329819 33.8533731,104.747213 L33.8337941,104.727722 C33.2466904,104.143255 33.2445523,103.19351 33.8290185,102.606407 L33.8337941,102.601631 L35.6259972,100.816539 L33.8337941,99.0315836 C33.2466904,98.4471175 33.2445523,97.4973724 33.8290185,96.9102687 C33.8306068,96.9086732 33.8321987,96.9070813 33.8337941,96.905493 L33.8533731,96.886002 C34.4386085,96.3033958 35.384677,96.3033958 35.9699124,96.886002 L37.7719972,98.6805394 L39.5752162,96.886002 C40.1604516,96.3033958 41.1065201,96.3033958 41.6917555,96.886002 Z" id="Combined-Shape-Copy-3" fill="#A3B1BF" fill-rule="nonzero" transform="translate(37.772564, 100.816607) rotate(45.000000) translate(-37.772564, -100.816607) "></path>
                <path d="M223.759688,85.8096131 L223.779266,85.8291041 C224.36637,86.4135703 224.368508,87.3633153 223.784042,87.9504191 C223.782454,87.9520145 223.780862,87.9536064 223.779266,87.9551947 L221.985929,89.7401505 L223.779266,91.5252421 C224.36637,92.1097082 224.368508,93.0594533 223.784042,93.646557 C223.782454,93.6481525 223.780862,93.6497444 223.779266,93.6513327 L223.759688,93.6708237 C223.174452,94.2534299 222.228384,94.2534299 221.643148,93.6708237 L219.839929,91.8751505 L218.037844,93.6708237 C217.452609,94.2534299 216.506541,94.2534299 215.921305,93.6708237 L215.901726,93.6513327 C215.314622,93.0668665 215.312484,92.1171215 215.896951,91.5300177 L215.901726,91.5252421 L217.693929,89.7401505 L215.901726,87.9551947 C215.314622,87.3707286 215.312484,86.4209835 215.896951,85.8338798 C215.898539,85.8322843 215.900131,85.8306924 215.901726,85.8291041 L215.921305,85.8096131 C216.506541,85.2270069 217.452609,85.2270069 218.037844,85.8096131 L219.839929,87.6041505 L221.643148,85.8096131 C222.228384,85.2270069 223.174452,85.2270069 223.759688,85.8096131 Z" id="Combined-Shape-Copy-8" fill="#A3B1BF" fill-rule="nonzero" transform="translate(219.840496, 89.740218) rotate(45.000000) translate(-219.840496, -89.740218) "></path>
                <path d="M78.959866,60.1055853 L80.9781799,61.9033375 L77.7654922,64.8114088 C78.2905614,65.7784785 78.5896509,66.8920089 78.5896509,68.077103 C78.5896509,71.7929255 75.6492574,74.8051948 72.0220982,74.8051948 C68.394939,74.8051948 65.4545455,71.7929255 65.4545455,68.077103 C65.4545455,64.3612805 68.394939,61.3490111 72.0220982,61.3490111 C73.5339787,61.3490111 74.9265399,61.872365 76.0365766,62.751878 L78.959866,60.1055853 Z M72.0220982,64.4542843 C70.0690125,64.4542843 68.4857236,66.0762755 68.4857236,68.077103 C68.4857236,70.0779305 70.0690125,71.6999216 72.0220982,71.6999216 C73.9751839,71.6999216 75.5584727,70.0779305 75.5584727,68.077103 C75.5584727,66.0762755 73.9751839,64.4542843 72.0220982,64.4542843 Z M83.216313,43.2159784 L87.6078324,47.6074978 L85.4644658,49.7508644 L87.4696686,51.7559784 L90.5457297,48.9434568 L92.3376623,50.5173359 L83.4127618,58.6784941 L81.6208291,57.104615 L85.9766686,53.1209784 L84.0355547,51.1797755 L81.892188,53.3231422 L77.5006686,48.9316228 L79.6440352,46.7882561 L81.839795,48.9840158 L83.2687061,47.5551047 L81.0729463,45.359345 L83.216313,43.2159784 Z" id="Combined-Shape" fill="#A3B1BF" fill-rule="nonzero"></path>
                <polygon id="Path-10" fill="#A3B1BF" fill-rule="nonzero" points="164.550396 0 143.766234 18.3336312 164.805195 24.5454545 164.805195 16.7608884 153.372849 16.0771872 164.805195 12.2727273"></polygon>
                <circle id="Oval" stroke="#A3B1BF" stroke-width="3" fill-rule="nonzero" cx="189.935065" cy="124.480519" r="4.92857143"></circle>
                <circle id="Oval-Copy-18" stroke="#A3B1BF" stroke-width="3" fill-rule="nonzero" cx="11.1038961" cy="23.961039" r="4.92857143"></circle>
                <circle id="Oval-Copy-15" stroke="#A3B1BF" stroke-width="3" fill-rule="nonzero" cx="199.285714" cy="167.727273" r="1.42207792"></circle>
                <circle id="Oval-Copy-16" stroke="#A3B1BF" stroke-width="3" fill-rule="nonzero" cx="104.61039" cy="25.1298701" r="1.42207792"></circle>
                <circle id="Oval-Copy-14" stroke="#A3B1BF" stroke-width="3" fill-rule="nonzero" cx="4.5" cy="136.5" r="3"></circle>
                <circle id="Oval-Copy-77" stroke="#A3B1BF" stroke-width="3" fill-rule="nonzero" cx="245.5" cy="143.5" r="1"></circle>
                <path d="M170.41933,17.1459038 C170.281408,17.1459038 170.141148,17.1295402 170.002058,17.0956441 C168.916213,16.8291506 167.792967,16.5720077 166.632317,16.3230467 C165.685564,16.11967 165.083616,15.1881116 165.285824,14.2413584 C165.490369,13.2946051 166.425434,12.6973324 167.368681,12.8948648 C168.563226,13.1520077 169.718032,13.4161636 170.834265,13.6885012 C171.775174,13.918761 172.351408,14.8678519 172.121148,15.808761 C171.925954,16.6094103 171.208291,17.1459038 170.41933,17.1459038 M180.467772,20.2234363 C180.257382,20.2234363 180.044655,20.1860337 179.837772,20.1065532 C178.827902,19.7173324 177.745564,19.3327869 176.618811,18.9646051 C175.698941,18.6630467 175.197512,17.6730467 175.49907,16.7531765 C175.79946,15.8321376 176.790629,15.3330467 177.710499,15.6322674 C178.893356,16.0191506 180.032967,16.4235661 181.097772,16.8338259 C182.001278,17.1821376 182.451278,18.196683 182.104135,19.1001895 C181.836473,19.7968129 181.171408,20.2234363 180.467772,20.2234363 M189.735434,25.1173324 C189.367252,25.1173324 188.997902,25.0016181 188.681148,24.7631765 C187.862967,24.1460337 186.938421,23.5394103 185.934395,22.95967 C185.095174,22.4757739 184.807642,21.4039558 185.291538,20.564735 C185.776603,19.726683 186.84959,19.4391506 187.686473,19.9218778 C188.814395,20.5740856 189.85933,21.2601895 190.793226,21.9649947 C191.565824,22.5470726 191.720109,23.6469428 191.136863,24.4195402 C190.792058,24.8765532 190.267252,25.1173324 189.735434,25.1173324 M195.5492,33.5656441 C194.714655,33.5656441 193.974785,32.9672025 193.825174,32.1174623 C193.658032,31.1718778 193.330759,30.2426571 192.852707,29.3531765 C192.393356,28.5010986 192.712447,27.4374623 193.565694,26.9792804 C194.417772,26.5199298 195.481408,26.8378519 195.93959,27.6910986 C196.596473,28.9090207 197.045304,30.1935661 197.277902,31.5061636 C197.447382,32.4599298 196.810369,33.3692804 195.856603,33.5375921 C195.753746,33.5562934 195.650889,33.5656441 195.5492,33.5656441 M193.154265,43.5427869 C192.8492,43.5427869 192.53946,43.4644752 192.258941,43.2961636 C191.426733,42.8005791 191.154395,41.7240856 191.651148,40.8918778 C192.233226,39.914735 192.712447,38.9492804 193.074785,38.0235661 C193.427772,37.1212285 194.445824,36.674735 195.345824,37.0288908 C196.248161,37.380709 196.693486,38.3975921 196.340499,39.2999298 C195.908032,40.4044752 195.343486,41.5452545 194.662058,42.6883713 C194.333616,43.237722 193.751538,43.5427869 193.154265,43.5427869 M186.487252,51.628761 C186.027902,51.628761 185.56972,51.4499298 185.226083,51.0934363 C184.554006,50.3968129 184.572707,49.2875921 185.26933,48.6143454 C186.114395,47.7985012 186.9092,46.9803194 187.635045,46.1843454 C188.286083,45.466683 189.395304,45.4152545 190.110629,46.0674623 C190.827122,46.71967 190.87972,47.827722 190.227512,48.5442155 C189.453746,49.3962934 188.604006,50.2682415 187.705174,51.136683 C187.365045,51.4651246 186.926733,51.628761 186.487252,51.628761 M178.444525,58.3962934 C177.911538,58.3962934 177.384395,58.1531765 177.040759,57.6938259 C176.45985,56.9188908 176.617642,55.8201895 177.392577,55.2392804 C178.338161,54.5321376 179.246343,53.8273324 180.117122,53.1283713 C180.872187,52.521748 181.975564,52.6433064 182.582187,53.3972025 C183.187642,54.1510986 183.068421,55.2544752 182.313356,55.8622674 C181.412187,56.5857739 180.472447,57.3139558 179.495304,58.0468129 C179.17972,58.281748 178.810369,58.3962934 178.444525,58.3962934 M169.77998,64.3573324 C169.201408,64.3573324 168.634525,64.0709687 168.300239,63.5473324 C167.778941,62.7303194 168.018551,61.6468129 168.835564,61.1255142 C169.830239,60.4908389 170.798032,59.8585012 171.738941,59.22967 C172.544265,58.6908389 173.633616,58.9070726 174.171278,59.7123973 C174.710109,60.5165532 174.493876,61.6059038 173.688551,62.144735 C172.727772,62.7875921 171.736603,63.4339558 170.720889,64.0826571 C170.428681,64.2685012 170.102577,64.3573324 169.77998,64.3573324 M73.7640056,106.878241 C73.0732263,106.878241 72.4186809,106.466813 72.1404991,105.787722 C71.7746549,104.892397 72.2036159,103.868501 73.0989406,103.501488 C74.1672523,103.064345 75.2601094,102.626034 76.3763432,102.186553 C77.2786809,101.832397 78.295564,102.275384 78.6497198,103.176553 C79.0038757,104.077722 78.5608887,105.095774 77.6597198,105.44993 C76.5586809,105.882397 75.4810185,106.314865 74.4279017,106.746164 C74.2104991,106.834995 73.9860835,106.878241 73.7640056,106.878241 M64.1363432,111.111748 C63.4806289,111.111748 62.8517978,110.741228 62.5514081,110.11006 C62.1353043,109.235774 62.5081614,108.18967 63.3824471,107.773566 C64.4238757,107.279151 65.4956939,106.783566 66.5990705,106.287982 C67.481538,105.88941 68.5194601,106.284475 68.9168627,107.168112 C69.3142653,108.050579 68.9203692,109.088501 68.0367328,109.485904 C66.9567328,109.970969 65.9071224,110.457203 64.8867328,110.941099 C64.6447848,111.056813 64.3888107,111.111748 64.1363432,111.111748 M54.8254341,115.995125 C54.2234861,115.995125 53.6367328,115.684215 53.3106289,115.127852 C52.8208887,114.293306 53.1002393,113.219151 53.9359536,112.728241 C54.9282913,112.146164 55.9650445,111.564086 57.0438757,110.97967 C57.8959536,110.517982 58.95959,110.835904 59.4201094,111.686813 C59.8806289,112.538891 59.5638757,113.602527 58.7129666,114.063047 C57.6703692,114.627592 56.6698497,115.190969 55.7102393,115.753177 C55.4320575,115.916813 55.1258237,115.995125 54.8254341,115.995125 M46.1632263,121.9398 C45.6594601,121.9398 45.1592004,121.723566 44.8132263,121.306293 C44.1949146,120.561748 44.296603,119.456034 45.0423172,118.837722 C45.9236159,118.104865 46.8890705,117.360319 47.9106289,116.622787 C48.6984211,116.057073 49.7924471,116.235904 50.3593302,117.02019 C50.9250445,117.805644 50.7473822,118.902008 49.9619276,119.467722 C49.0046549,120.158501 48.1023172,120.853956 47.2817978,121.535384 C46.954525,121.806553 46.5571224,121.9398 46.1632263,121.9398 M39.3524471,129.855125 C39.0847848,129.855125 38.8124471,129.793177 38.5576419,129.663436 C37.6950445,129.222787 37.352577,128.167332 37.7920575,127.304735 C38.3379017,126.234086 39.0321874,125.150579 39.8550445,124.085774 C40.4464731,123.319021 41.5486809,123.178761 42.3142653,123.77019 C43.0810185,124.361618 43.2212783,125.463826 42.6298497,126.22941 C41.9402393,127.122397 41.3628367,128.02006 40.9163432,128.897852 C40.6054341,129.504475 39.9906289,129.855125 39.3524471,129.855125 M38.8919276,139.978371 C38.2116679,139.978371 37.5641354,139.580969 37.2789406,138.914735 C36.7342653,137.643047 36.3871224,136.343306 36.244525,135.051748 C36.1381614,134.088631 36.8324471,133.222527 37.795564,133.116164 C38.7563432,133.010969 39.6236159,133.705254 39.7299796,134.667203 C39.8340056,135.616293 40.0946549,136.580579 40.502577,137.535514 C40.8836159,138.424995 40.4710185,139.455904 39.581538,139.836943 C39.3559536,139.932787 39.1221874,139.978371 38.8919276,139.978371 M45.4911484,148.028112 C45.09959,148.028112 44.7068627,147.898371 44.3807588,147.630709 C43.3849146,146.813696 42.4662133,145.979151 41.6503692,145.14928 C40.9712783,144.458501 40.9794601,143.34928 41.6702393,142.67019 C42.3610185,141.992267 43.4690705,141.99928 44.1493302,142.69006 C44.8786809,143.431099 45.7050445,144.181488 46.6050445,144.919021 C47.3530965,145.533826 47.4617978,146.638371 46.8481614,147.387592 C46.5010185,147.80954 45.9984211,148.028112 45.4911484,148.028112 M54.2538757,153.817332 C53.967512,153.817332 53.6764731,153.747203 53.4088107,153.598761 C52.3323172,153.004995 51.2897198,152.39954 50.3079017,151.797592 C49.4827069,151.291488 49.2232263,150.211488 49.7293302,149.386293 C50.2354341,148.561099 51.316603,148.301618 52.1406289,148.807722 C53.0768627,149.381618 54.0738757,149.961358 55.1024471,150.528241 C55.9498497,150.996943 56.2584211,152.062917 55.7908887,152.910319 C55.4706289,153.49006 54.8721874,153.817332 54.2538757,153.817332 M63.7097198,158.416683 C63.4759536,158.416683 63.2398497,158.36993 63.0119276,158.270579 C61.8968627,157.786683 60.8168627,157.300449 59.7719276,156.814215 C58.8941354,156.406293 58.5142653,155.362527 58.9233562,154.484735 C59.3312783,153.606943 60.3738757,153.227073 61.2528367,153.634995 C62.2697198,154.10954 63.3228367,154.581748 64.4086809,155.053956 C65.2969926,155.43967 65.7049146,156.472917 65.3192004,157.361228 C65.0316679,158.021618 64.3864731,158.416683 63.7097198,158.416683 M73.4823172,162.305384 C73.2812783,162.305384 73.0779017,162.270319 72.8780315,162.197852 C71.7489406,161.782917 70.645564,161.367982 69.5690705,160.953047 C68.665564,160.603566 68.2167328,159.589021 68.5650445,158.685514 C68.914525,157.782008 69.9290705,157.334345 70.8314081,157.681488 C71.8903692,158.08941 72.9750445,158.498501 74.086603,158.905254 C74.9947848,159.238371 75.4611484,160.245904 75.1280315,161.155254 C74.8673822,161.864735 74.1964731,162.305384 73.4823172,162.305384" id="Fill-1" fill="#A0AEBB"></path>
            </g>
        </g>
    </g>
</svg>